<svg xmlns="http://www.w3.org/2000/svg" xmlns:xlink="http://www.w3.org/1999/xlink" version="1.1" width="891.1000123023987" height="636.1000121831894" viewBox="6.900000095367432 0.8999999761581421 891.1000123023987 636.1000121831894"><g><g transform="translate(404,1)"><g><g>
<g stroke="#000000" stroke-dasharray="none" fill="#FFFFFF">
    <path d="M92.3,68.9H4.7C2.1,68.9,0,66.3,0,63V5.9C0,2.7,2.1,0,4.7,0h87.7c2.6,0,4.7,2.7,4.7,5.9v57.1C97,66.3,94.9,68.9,92.3,68.9z"/>
</g>
<rect x="4.3" y="2.4" width="88.9" height="62.6" fill="none"/>
<circle cx="48.7" cy="0.1" r="0.1"/>
<circle cx="77.6" cy="0" r="0.1"/>
<circle cx="97" cy="8.3" r="0.1"/>
<circle cx="97" cy="33.7" r="0.1"/>
<circle cx="97" cy="56.3" r="0.1"/>
<circle cx="77.5" cy="69" r="0.1"/>
<circle cx="48.8" cy="68.9" r="0.1"/>
<circle cx="16.4" cy="68.9" r="0.1"/>
<circle cx="0" cy="56.4" r="0.1"/>
<circle cx="0" cy="34.5" r="0.1"/>
<circle cx="0" cy="14.8" r="0.1"/>
<circle cx="16.4" cy="0.1" r="0.1"/>
</g></g><rect stroke="none" stroke-width="0" fill="#FFFFFF" x="0" y="0" width="0" height="0" transform="translate(96.9,33.6)"/><path stroke="#000000" fill="none" d=""/><text font-family="OpenSansCondensedLight" font-size="14pt" fill="black" transform="translate(96.9,33.6)"/><rect stroke-width="0" fill="none" width="88.9" height="62.6" transform="translate(4.3,2.4)"/><text font-family="OpenSansCondensedLight" font-size="14pt" fill="black" transform="translate(4.3,2.4)" text-anchor="middle"><tspan x="44.5" y="16.6">OPTICAL</tspan><tspan x="44.5" y="37.6">SENSOR</tspan><tspan x="44.5" y="58.6">410</tspan></text><path stroke="#000000" fill="none" transform="translate(4.3,2.4)" d="M 30.5 61 58.5 61"/></g><g transform="translate(713,3)"><g><g>
<g stroke="#000000" stroke-dasharray="none" fill="#FFFFFF">
    <path d="M80,66.9H4C1.8,66.9,0,64.4,0,61.2V5.7C0,2.6,1.8,0,4,0h75.9c2.2,0,4,2.6,4,5.7v55.5C84,64.4,82.2,66.9,80,66.9z"/>
</g>
<rect x="3.7" y="2.3" width="77" height="60.8" fill="none"/>
<circle cx="42.2" cy="0.1" r="0.1"/>
<circle cx="67.2" cy="0" r="0.1"/>
<circle cx="84" cy="8.1" r="0.1"/>
<circle cx="84" cy="32.7" r="0.1"/>
<circle cx="84" cy="54.7" r="0.1"/>
<circle cx="67.1" cy="67" r="0.1"/>
<circle cx="42.2" cy="66.9" r="0.1"/>
<circle cx="14.2" cy="66.9" r="0.1"/>
<circle cx="0" cy="54.7" r="0.1"/>
<circle cx="0" cy="33.5" r="0.1"/>
<circle cx="0" cy="14.3" r="0.1"/>
<circle cx="14.2" cy="0.1" r="0.1"/>
</g></g><rect stroke="none" stroke-width="0" fill="#FFFFFF" x="0" y="0" width="0" height="0" transform="translate(83.9,32.6)"/><path stroke="#000000" fill="none" d=""/><text font-family="OpenSansCondensedLight" font-size="14pt" fill="black" transform="translate(83.9,32.6)"/><rect stroke-width="0" fill="none" width="77" height="60.8" transform="translate(3.7,2.3)"/><text font-family="OpenSansCondensedLight" font-size="14pt" fill="black" transform="translate(3.7,2.3)" text-anchor="middle"><tspan x="38.5" y="15.7">DISPLAY</tspan><tspan x="38.5" y="36.7">DEVICE</tspan><tspan x="38.5" y="57.7">414</tspan></text><path stroke="#000000" fill="none" transform="translate(3.7,2.3)" d="M 24.5 60 52.5 60"/></g><g transform="translate(301,3)"><g><g>
<g stroke="#000000" stroke-dasharray="none" fill="#FFFFFF">
    <path d="M89.5,66.9H4.5C2,66.9,0,64.4,0,61.2V5.7C0,2.6,2,0,4.5,0h85c2.5,0,4.5,2.6,4.5,5.7v55.5C94,64.4,92,66.9,89.5,66.9z"/>
</g>
<rect x="4.2" y="2.3" width="86.2" height="60.8" fill="none"/>
<circle cx="47.2" cy="0.1" r="0.1"/>
<circle cx="75.2" cy="0" r="0.1"/>
<circle cx="94" cy="8.1" r="0.1"/>
<circle cx="94" cy="32.7" r="0.1"/>
<circle cx="94" cy="54.7" r="0.1"/>
<circle cx="75.1" cy="67" r="0.1"/>
<circle cx="47.3" cy="66.9" r="0.1"/>
<circle cx="15.9" cy="66.9" r="0.1"/>
<circle cx="0" cy="54.7" r="0.1"/>
<circle cx="0" cy="33.5" r="0.1"/>
<circle cx="0" cy="14.3" r="0.1"/>
<circle cx="15.9" cy="0.1" r="0.1"/>
</g></g><rect stroke="none" stroke-width="0" fill="#FFFFFF" x="0" y="0" width="0" height="0" transform="translate(93.9,32.6)"/><path stroke="#000000" fill="none" d=""/><text font-family="OpenSansCondensedLight" font-size="14pt" fill="black" transform="translate(93.9,32.6)"/><rect stroke-width="0" fill="none" width="86.2" height="60.8" transform="translate(4.2,2.3)"/><text font-family="OpenSansCondensedLight" font-size="14pt" fill="black" transform="translate(4.2,2.3)" text-anchor="middle"><tspan x="43.1" y="26.2">CONTROLLER</tspan><tspan x="43.1" y="47.2">408</tspan></text><path stroke="#000000" fill="none" transform="translate(4.2,2.3)" d="M 29.1 49 57.1 49"/></g><g transform="translate(506,2)"><g><g>
<g stroke="#000000" stroke-dasharray="none" fill="#FFFFFF">
    <path d="M87.6,66.9H4.4C2,66.9,0,64.4,0,61.2V5.7C0,2.6,2,0,4.4,0h83.1c2.4,0,4.4,2.6,4.4,5.7v55.5C92,64.4,90,66.9,87.6,66.9z"/>
</g>
<rect x="4.1" y="2.3" width="84.3" height="60.8" fill="none"/>
<circle cx="46.2" cy="0.1" r="0.1"/>
<circle cx="73.6" cy="0" r="0.1"/>
<circle cx="92" cy="8.1" r="0.1"/>
<circle cx="92" cy="32.7" r="0.1"/>
<circle cx="92" cy="54.7" r="0.1"/>
<circle cx="73.5" cy="67" r="0.1"/>
<circle cx="46.3" cy="66.9" r="0.1"/>
<circle cx="15.5" cy="66.9" r="0.1"/>
<circle cx="0" cy="54.7" r="0.1"/>
<circle cx="0" cy="33.5" r="0.1"/>
<circle cx="0" cy="14.3" r="0.1"/>
<circle cx="15.6" cy="0.1" r="0.1"/>
</g></g><rect stroke="none" stroke-width="0" fill="#FFFFFF" x="0" y="0" width="0" height="0" transform="translate(91.9,32.6)"/><path stroke="#000000" fill="none" d=""/><text font-family="OpenSansCondensedLight" font-size="14pt" fill="black" transform="translate(91.9,32.6)"/><rect stroke-width="0" fill="none" width="84.3" height="60.8" transform="translate(4.1,2.3)"/><text font-family="OpenSansCondensedLight" font-size="14pt" fill="black" transform="translate(4.1,2.3)" text-anchor="middle"><tspan x="42.2" y="15.7">COMPUTING</tspan><tspan x="42.2" y="36.7">DEVICE</tspan><tspan x="42.2" y="57.7">412</tspan></text><path stroke="#000000" fill="none" transform="translate(4.1,2.3)" d="M 28.2 60 56.2 60"/></g><g transform="translate(190,4)"><g><g>
<g stroke="#000000" stroke-dasharray="none" fill="#FFFFFF">
    <path d="M92.3,66.9H4.7C2.1,66.9,0,64.4,0,61.2V5.7C0,2.6,2.1,0,4.7,0h87.7c2.6,0,4.7,2.6,4.7,5.7v55.5C97,64.4,94.9,66.9,92.3,66.9z"/>
</g>
<rect x="4.3" y="2.3" width="88.9" height="60.8" fill="none"/>
<circle cx="48.7" cy="0.1" r="0.1"/>
<circle cx="77.6" cy="0" r="0.1"/>
<circle cx="97" cy="8.1" r="0.1"/>
<circle cx="97" cy="32.7" r="0.1"/>
<circle cx="97" cy="54.7" r="0.1"/>
<circle cx="77.5" cy="67" r="0.1"/>
<circle cx="48.8" cy="66.9" r="0.1"/>
<circle cx="16.4" cy="66.9" r="0.1"/>
<circle cx="0" cy="54.7" r="0.1"/>
<circle cx="0" cy="33.5" r="0.1"/>
<circle cx="0" cy="14.3" r="0.1"/>
<circle cx="16.4" cy="0.1" r="0.1"/>
</g></g><rect stroke="none" stroke-width="0" fill="#FFFFFF" x="0" y="0" width="0" height="0" transform="translate(96.9,32.6)"/><path stroke="#000000" fill="none" d=""/><text font-family="OpenSansCondensedLight" font-size="14pt" fill="black" transform="translate(96.9,32.6)"/><rect stroke-width="0" fill="none" width="88.9" height="60.8" transform="translate(4.3,2.3)"/><text font-family="OpenSansCondensedLight" font-size="14pt" fill="black" transform="translate(4.3,2.3)" text-anchor="middle"><tspan x="44.5" y="15.7">POWER</tspan><tspan x="44.5" y="36.7">SUPPLY</tspan><tspan x="44.5" y="57.7">406</tspan></text><path stroke="#000000" fill="none" transform="translate(4.3,2.3)" d="M 30.5 60 58.5 60"/></g><g transform="translate(14,1.7)"><g><g>
<g stroke="#000000" stroke-dasharray="none" fill="#FFFFFF">
    <path d="M75.2,66.9H3.8C1.7,66.9,0,64.4,0,61.2V5.7C0,2.6,1.7,0,3.8,0h71.4c2.1,0,3.8,2.6,3.8,5.7v55.5C79,64.4,77.3,66.9,75.2,66.9z"/>
</g>
<rect x="3.5" y="2.3" width="72.4" height="60.8" fill="none"/>
<circle cx="39.7" cy="0.1" r="0.1"/>
<circle cx="63.2" cy="0" r="0.1"/>
<circle cx="79" cy="8.1" r="0.1"/>
<circle cx="79" cy="32.7" r="0.1"/>
<circle cx="79" cy="54.7" r="0.1"/>
<circle cx="63.1" cy="67" r="0.1"/>
<circle cx="39.7" cy="66.9" r="0.1"/>
<circle cx="13.3" cy="66.9" r="0.1"/>
<circle cx="0" cy="54.7" r="0.1"/>
<circle cx="0" cy="33.5" r="0.1"/>
<circle cx="0" cy="14.3" r="0.1"/>
<circle cx="13.4" cy="0.1" r="0.1"/>
</g></g><rect stroke="none" stroke-width="0" fill="#FFFFFF" x="0" y="0" width="0" height="0" transform="translate(78.9,32.6)"/><path stroke="#000000" fill="none" d=""/><text font-family="OpenSansCondensedLight" font-size="14pt" fill="black" transform="translate(78.9,32.6)"/><rect stroke-width="0" fill="none" width="72.4" height="60.8" transform="translate(3.5,2.3)"/><text font-family="OpenSansCondensedLight" font-size="14pt" fill="black" transform="translate(3.5,2.3)" text-anchor="middle"><tspan x="36.2" y="26.2">BUFFERS</tspan><tspan x="36.2" y="47.2">402</tspan></text><path stroke="#000000" fill="none" transform="translate(3.5,2.3)" d="M 22.2 49 50.2 49"/></g><g transform="translate(103,4)"><g><g>
<g stroke="#000000" stroke-dasharray="none" fill="#FFFFFF">
    <path d="M75.2,66.9H3.8C1.7,66.9,0,64.4,0,61.2V5.7C0,2.6,1.7,0,3.8,0h71.4c2.1,0,3.8,2.6,3.8,5.7v55.5C79,64.4,77.3,66.9,75.2,66.9z"/>
</g>
<rect x="3.5" y="2.3" width="72.4" height="60.8" fill="none"/>
<circle cx="39.7" cy="0.1" r="0.1"/>
<circle cx="63.2" cy="0" r="0.1"/>
<circle cx="79" cy="8.1" r="0.1"/>
<circle cx="79" cy="32.7" r="0.1"/>
<circle cx="79" cy="54.7" r="0.1"/>
<circle cx="63.1" cy="67" r="0.1"/>
<circle cx="39.7" cy="66.9" r="0.1"/>
<circle cx="13.3" cy="66.9" r="0.1"/>
<circle cx="0" cy="54.7" r="0.1"/>
<circle cx="0" cy="33.5" r="0.1"/>
<circle cx="0" cy="14.3" r="0.1"/>
<circle cx="13.4" cy="0.1" r="0.1"/>
</g></g><rect stroke="none" stroke-width="0" fill="#FFFFFF" x="0" y="0" width="0" height="0" transform="translate(78.9,32.6)"/><path stroke="#000000" fill="none" d=""/><text font-family="OpenSansCondensedLight" font-size="14pt" fill="black" transform="translate(78.9,32.6)"/><rect stroke-width="0" fill="none" width="72.4" height="60.8" transform="translate(3.5,2.3)"/><text font-family="OpenSansCondensedLight" font-size="14pt" fill="black" transform="translate(3.5,2.3)" text-anchor="middle"><tspan x="36.2" y="26.2">CAPILARY</tspan><tspan x="36.2" y="47.2">404</tspan></text><path stroke="#000000" fill="none" transform="translate(3.5,2.3)" d="M 22.2 49 50.2 49"/></g><g><path stroke="black" stroke-dasharray="none" d="M 53 69 53 616" fill="none"/><path fill="black" stroke="black" d="" transform="translate(53,69) scale(1,1) rotate(-270)"/><path fill="black" stroke="black" d="M 8 0 L 0 4 L 8 8 z" transform="translate(49,624) scale(1,1) rotate(-90)"/><g><g label-idx="0" cursor="move" transform="translate(53, 342.5)"><rect fill="white" rx="3" ry="3" x="0" y="0" width="0" height="0"/><text text-anchor="middle" font-size="14pt" font-family="OpenSansCondensedLight" y="0.8em" display="none" xml:space="preserve" transform="translate(0,0)"/></g></g></g><g><path stroke="black" stroke-dasharray="none" d="M 138 71 138 623" fill="none"/><path fill="black" stroke="black" d="" transform="translate(138,71) scale(1,1) rotate(-270)"/><path fill="black" stroke="black" d="M 8 0 L 0 4 L 8 8 z" transform="translate(134,631) scale(1,1) rotate(-90)"/><g><g label-idx="0" cursor="move" transform="translate(138, 347)"><rect fill="white" rx="3" ry="3" x="0" y="0" width="0" height="0"/><text text-anchor="middle" font-size="14pt" font-family="OpenSansCondensedLight" y="0.8em" display="none" xml:space="preserve" transform="translate(0,0)"/></g></g></g><g><path stroke="black" stroke-dasharray="none" d="M 239 71 239 618" fill="none"/><path fill="black" stroke="black" d="" transform="translate(239,71) scale(1,1) rotate(-270)"/><path fill="black" stroke="black" d="M 8 0 L 0 4 L 8 8 z" transform="translate(235,626) scale(1,1) rotate(-90)"/><g><g label-idx="0" cursor="move" transform="translate(239, 344.5)"><rect fill="white" rx="3" ry="3" x="0" y="0" width="0" height="0"/><text text-anchor="middle" font-size="14pt" font-family="OpenSansCondensedLight" y="0.8em" display="none" xml:space="preserve" transform="translate(0,0)"/></g></g></g><g><path stroke="black" stroke-dasharray="none" d="M 350 70 350 618" fill="none"/><path fill="black" stroke="black" d="" transform="translate(350,70) scale(1,1) rotate(-270)"/><path fill="black" stroke="black" d="M 8 0 L 0 4 L 8 8 z" transform="translate(346,626) scale(1,1) rotate(-90)"/><g><g label-idx="0" cursor="move" transform="translate(350, 344)"><rect fill="white" rx="3" ry="3" x="0" y="0" width="0" height="0"/><text text-anchor="middle" font-size="14pt" font-family="OpenSansCondensedLight" y="0.8em" display="none" xml:space="preserve" transform="translate(0,0)"/></g></g></g><g><path stroke="black" stroke-dasharray="none" d="M 454 70 454 614" fill="none"/><path fill="black" stroke="black" d="" transform="translate(454,70) scale(1,1) rotate(-270)"/><path fill="black" stroke="black" d="M 8 0 L 0 4 L 8 8 z" transform="translate(450,622) scale(1,1) rotate(-90)"/><g><g label-idx="0" cursor="move" transform="translate(454, 342)"><rect fill="white" rx="3" ry="3" x="0" y="0" width="0" height="0"/><text text-anchor="middle" font-size="14pt" font-family="OpenSansCondensedLight" y="0.8em" display="none" xml:space="preserve" transform="translate(0,0)"/></g></g></g><g><path stroke="black" stroke-dasharray="none" d="M 551 69 551 623" fill="none"/><path fill="black" stroke="black" d="" transform="translate(551,69) scale(1,1) rotate(-270)"/><path fill="black" stroke="black" d="M 8 0 L 0 4 L 8 8 z" transform="translate(547,631) scale(1,1) rotate(-90)"/><g><g label-idx="0" cursor="move" transform="translate(551, 346)"><rect fill="white" rx="3" ry="3" x="0" y="0" width="0" height="0"/><text text-anchor="middle" font-size="14pt" font-family="OpenSansCondensedLight" y="0.8em" display="none" xml:space="preserve" transform="translate(0,0)"/></g></g></g><g><path stroke="black" stroke-dasharray="none" d="M 756 70 756 623" fill="none"/><path fill="black" stroke="black" d="" transform="translate(756,70) scale(1,1) rotate(-270)"/><path fill="black" stroke="black" d="M 8 0 L 0 4 L 8 8 z" transform="translate(752,631) scale(1,1) rotate(-90)"/><g><g label-idx="0" cursor="move" transform="translate(756, 346.5)"><rect fill="white" rx="3" ry="3" x="0" y="0" width="0" height="0"/><text text-anchor="middle" font-size="14pt" font-family="OpenSansCondensedLight" y="0.8em" display="none" xml:space="preserve" transform="translate(0,0)"/></g></g></g><g transform="translate(540,95)"><g><g>
<path d="M9.5,0C4.2,0,0,4.3,0,9.5s4.2,9.5,9.5,9.5s9.5,-4.3,9.5,-9.5S14.8,0,9.5,0L9.5,0z" stroke="#000000" stroke-dasharray="none" fill="#FFFFFF"/>
<rect x="1.9" y="4.8" width="15.3" height="9.3" fill="none"/>
<circle fill="none" cx="9.5" cy="0" r="0.1"/>
<circle fill="none" cx="14" cy="1.2" r="0.1"/>
<circle fill="none" cx="17.8" cy="4.9" r="0.1"/>
<circle fill="none" cx="19" cy="9.5" r="0.1"/>
<circle fill="none" cx="17.8" cy="14.2" r="0.1"/>
<circle fill="none" cx="14.2" cy="17.8" r="0.1"/>
<circle fill="none" cx="9.5" cy="19" r="0.1"/>
<circle fill="none" cx="4.8" cy="17.8" r="0.1"/>
<circle fill="none" cx="1.2" cy="14.2" r="0.1"/>
<circle fill="none" cx="0" cy="9.4" r="0.1"/>
<circle fill="none" cx="1.2" cy="4.9" r="0.1"/>
<circle fill="none" cx="4.9" cy="1.2" r="0.1"/>
</g></g><rect stroke="none" stroke-width="0" fill="#FFFFFF" x="0" y="0" width="0" height="0" transform="translate(18.9,9.4)"/><path stroke="#000000" fill="none" d=""/><text font-family="OpenSansCondensedLight" font-size="14pt" fill="black" transform="translate(18.9,9.4)"/><rect stroke-width="0" fill="none" width="15.3" height="9.3" transform="translate(1.9,4.8)"/><text font-family="OpenSansCondensedLight" font-size="14pt" fill="black" transform="translate(1.9,4.8)" text-anchor="middle"><tspan x="7.7" y="11"> </tspan></text><path stroke="#000000" fill="none" transform="translate(1.9,4.8)" d="M 0 0"/></g><g><path stroke="black" stroke-dasharray="none" d="M 540 102 358 102" fill="none"/><path fill="black" stroke="black" d="" transform="translate(540,102) scale(1,1) rotate(-180)"/><path fill="black" stroke="black" d="M 8 0 L 0 4 L 8 8 z" transform="translate(350,98) scale(1,1) rotate(0)"/><g><g label-idx="0" cursor="move" transform="translate(449, 102)"><rect fill="white" rx="3" ry="3" x="-62.7" y="-13.1" width="125.4" height="22"/><text text-anchor="start" font-size="14pt" font-family="OpenSansCondensedLight" y="0.8em" display="null" xml:space="preserve" transform="translate(0,-11)"><tspan x="-53.4" y="0.8em">CONFIGURE</tspan></text></g></g></g><g transform="translate(342,132)"><g><g>
<path d="M9.5,0C4.2,0,0,4.3,0,9.5s4.2,9.5,9.5,9.5s9.5,-4.3,9.5,-9.5S14.8,0,9.5,0L9.5,0z" stroke="#000000" stroke-dasharray="none" fill="#FFFFFF"/>
<rect x="1.9" y="4.8" width="15.3" height="9.3" fill="none"/>
<circle fill="none" cx="9.5" cy="0" r="0.1"/>
<circle fill="none" cx="14" cy="1.2" r="0.1"/>
<circle fill="none" cx="17.8" cy="4.9" r="0.1"/>
<circle fill="none" cx="19" cy="9.5" r="0.1"/>
<circle fill="none" cx="17.8" cy="14.2" r="0.1"/>
<circle fill="none" cx="14.2" cy="17.8" r="0.1"/>
<circle fill="none" cx="9.5" cy="19" r="0.1"/>
<circle fill="none" cx="4.8" cy="17.8" r="0.1"/>
<circle fill="none" cx="1.2" cy="14.2" r="0.1"/>
<circle fill="none" cx="0" cy="9.4" r="0.1"/>
<circle fill="none" cx="1.2" cy="4.9" r="0.1"/>
<circle fill="none" cx="4.9" cy="1.2" r="0.1"/>
</g></g><rect stroke="none" stroke-width="0" fill="#FFFFFF" x="0" y="0" width="0" height="0" transform="translate(18.9,9.4)"/><path stroke="#000000" fill="none" d=""/><text font-family="OpenSansCondensedLight" font-size="14pt" fill="black" transform="translate(18.9,9.4)"/><rect stroke-width="0" fill="none" width="15.3" height="9.3" transform="translate(1.9,4.8)"/><text font-family="OpenSansCondensedLight" font-size="14pt" fill="black" transform="translate(1.9,4.8)" text-anchor="middle"><tspan x="7.7" y="11"> </tspan></text><path stroke="#000000" fill="none" transform="translate(1.9,4.8)" d="M 0 0"/></g><g><path stroke="black" stroke-dasharray="none" d="M 342 144 249 144" fill="none"/><path fill="black" stroke="black" d="" transform="translate(342,144) scale(1,1) rotate(-180)"/><path fill="black" stroke="black" d="M 8 0 L 0 4 L 8 8 z" transform="translate(241,140) scale(1,1) rotate(0)"/><g><g label-idx="0" cursor="move" transform="translate(295.5, 144)"><rect fill="white" rx="3" ry="3" x="-53.4" y="-13.1" width="106.8" height="22"/><text text-anchor="start" font-size="14pt" font-family="OpenSansCondensedLight" y="0.8em" display="null" xml:space="preserve" transform="translate(0,-11)"><tspan x="-44" y="0.8em">CONTROL</tspan></text></g></g></g><g transform="translate(229,171)"><g><g>
<path d="M9.5,0C4.2,0,0,4.3,0,9.5s4.2,9.5,9.5,9.5s9.5,-4.3,9.5,-9.5S14.8,0,9.5,0L9.5,0z" stroke="#000000" stroke-dasharray="none" fill="#FFFFFF"/>
<rect x="1.9" y="4.8" width="15.3" height="9.3" fill="none"/>
<circle fill="none" cx="9.5" cy="0" r="0.1"/>
<circle fill="none" cx="14" cy="1.2" r="0.1"/>
<circle fill="none" cx="17.8" cy="4.9" r="0.1"/>
<circle fill="none" cx="19" cy="9.5" r="0.1"/>
<circle fill="none" cx="17.8" cy="14.2" r="0.1"/>
<circle fill="none" cx="14.2" cy="17.8" r="0.1"/>
<circle fill="none" cx="9.5" cy="19" r="0.1"/>
<circle fill="none" cx="4.8" cy="17.8" r="0.1"/>
<circle fill="none" cx="1.2" cy="14.2" r="0.1"/>
<circle fill="none" cx="0" cy="9.4" r="0.1"/>
<circle fill="none" cx="1.2" cy="4.9" r="0.1"/>
<circle fill="none" cx="4.9" cy="1.2" r="0.1"/>
</g></g><rect stroke="none" stroke-width="0" fill="#FFFFFF" x="0" y="0" width="0" height="0" transform="translate(18.9,9.4)"/><path stroke="#000000" fill="none" d=""/><text font-family="OpenSansCondensedLight" font-size="14pt" fill="black" transform="translate(18.9,9.4)"/><rect stroke-width="0" fill="none" width="15.3" height="9.3" transform="translate(1.9,4.8)"/><text font-family="OpenSansCondensedLight" font-size="14pt" fill="black" transform="translate(1.9,4.8)" text-anchor="middle"><tspan x="7.7" y="11"> </tspan></text><path stroke="#000000" fill="none" transform="translate(1.9,4.8)" d="M 0 0"/></g><g><path stroke="black" stroke-dasharray="none" d="M 229 177 59 177" fill="none"/><path fill="black" stroke="black" d="" transform="translate(229,177) scale(1,1) rotate(-180)"/><path fill="black" stroke="black" d="M 8 0 L 0 4 L 8 8 z" transform="translate(51,173) scale(1,1) rotate(0)"/><g><g label-idx="0" cursor="move" transform="translate(144, 177)"><rect fill="white" rx="3" ry="3" x="-70.4" y="-13.1" width="140.9" height="22"/><text text-anchor="start" font-size="14pt" font-family="OpenSansCondensedLight" y="0.8em" display="null" xml:space="preserve" transform="translate(0,-11)"><tspan x="-61.1" y="0.8em">VOLTAGE</tspan><tspan x="33.1" y="0.8em" text-decoration="underline">420</tspan></text></g></g></g><g transform="translate(130,237)"><g><g>
<path d="M9.5,0C4.2,0,0,4.3,0,9.5s4.2,9.5,9.5,9.5s9.5,-4.3,9.5,-9.5S14.8,0,9.5,0L9.5,0z" stroke="#000000" stroke-dasharray="none" fill="#FFFFFF"/>
<rect x="1.9" y="4.8" width="15.3" height="9.3" fill="none"/>
<circle fill="none" cx="9.5" cy="0" r="0.1"/>
<circle fill="none" cx="14" cy="1.2" r="0.1"/>
<circle fill="none" cx="17.8" cy="4.9" r="0.1"/>
<circle fill="none" cx="19" cy="9.5" r="0.1"/>
<circle fill="none" cx="17.8" cy="14.2" r="0.1"/>
<circle fill="none" cx="14.2" cy="17.8" r="0.1"/>
<circle fill="none" cx="9.5" cy="19" r="0.1"/>
<circle fill="none" cx="4.8" cy="17.8" r="0.1"/>
<circle fill="none" cx="1.2" cy="14.2" r="0.1"/>
<circle fill="none" cx="0" cy="9.4" r="0.1"/>
<circle fill="none" cx="1.2" cy="4.9" r="0.1"/>
<circle fill="none" cx="4.9" cy="1.2" r="0.1"/>
</g></g><rect stroke="none" stroke-width="0" fill="#FFFFFF" x="0" y="0" width="0" height="0" transform="translate(18.9,9.4)"/><path stroke="#000000" fill="none" d=""/><text font-family="OpenSansCondensedLight" font-size="14pt" fill="black" transform="translate(18.9,9.4)"/><rect stroke-width="0" fill="none" width="15.3" height="9.3" transform="translate(1.9,4.8)"/><text font-family="OpenSansCondensedLight" font-size="14pt" fill="black" transform="translate(1.9,4.8)" text-anchor="middle"><tspan x="7.7" y="11"> </tspan></text><path stroke="#000000" fill="none" transform="translate(1.9,4.8)" d="M 0 0"/></g><g><path stroke="black" stroke-dasharray="none" d="M 149 247 441 247" fill="none"/><path fill="black" stroke="black" d="" transform="translate(149,247) scale(1,1) rotate(0)"/><path fill="black" stroke="black" d="M 8 0 L 0 4 L 8 8 z" transform="translate(449,251) scale(1,1) rotate(-180)"/><g><g label-idx="0" cursor="move" transform="translate(295, 247)"><rect fill="white" rx="3" ry="3" x="-46.1" y="-13.1" width="92.3" height="22"/><text text-anchor="start" font-size="14pt" font-family="OpenSansCondensedLight" y="0.8em" display="null" xml:space="preserve" transform="translate(0,-11)"><tspan x="-36.8" y="0.8em">SAMPLE</tspan></text></g></g></g><g transform="translate(445,298)"><g><g>
<path d="M9.5,0C4.2,0,0,4.3,0,9.5s4.2,9.5,9.5,9.5s9.5,-4.3,9.5,-9.5S14.8,0,9.5,0L9.5,0z" stroke="#000000" stroke-dasharray="none" fill="#FFFFFF"/>
<rect x="1.9" y="4.8" width="15.3" height="9.3" fill="none"/>
<circle fill="none" cx="9.5" cy="0" r="0.1"/>
<circle fill="none" cx="14" cy="1.2" r="0.1"/>
<circle fill="none" cx="17.8" cy="4.9" r="0.1"/>
<circle fill="none" cx="19" cy="9.5" r="0.1"/>
<circle fill="none" cx="17.8" cy="14.2" r="0.1"/>
<circle fill="none" cx="14.2" cy="17.8" r="0.1"/>
<circle fill="none" cx="9.5" cy="19" r="0.1"/>
<circle fill="none" cx="4.8" cy="17.8" r="0.1"/>
<circle fill="none" cx="1.2" cy="14.2" r="0.1"/>
<circle fill="none" cx="0" cy="9.4" r="0.1"/>
<circle fill="none" cx="1.2" cy="4.9" r="0.1"/>
<circle fill="none" cx="4.9" cy="1.2" r="0.1"/>
</g></g><rect stroke="none" stroke-width="0" fill="#FFFFFF" x="0" y="0" width="0" height="0" transform="translate(18.9,9.4)"/><path stroke="#000000" fill="none" d=""/><text font-family="OpenSansCondensedLight" font-size="14pt" fill="black" transform="translate(18.9,9.4)"/><rect stroke-width="0" fill="none" width="15.3" height="9.3" transform="translate(1.9,4.8)"/><text font-family="OpenSansCondensedLight" font-size="14pt" fill="black" transform="translate(1.9,4.8)" text-anchor="middle"><tspan x="7.7" y="11"> </tspan></text><path stroke="#000000" fill="none" transform="translate(1.9,4.8)" d="M 0 0"/></g><g><path stroke="black" stroke-dasharray="none" d="M 464 308 541 308" fill="none"/><path fill="black" stroke="black" d="" transform="translate(464,308) scale(1,1) rotate(0)"/><path fill="black" stroke="black" d="M 8 0 L 0 4 L 8 8 z" transform="translate(549,312) scale(1,1) rotate(-180)"/><g><g label-idx="0" cursor="move" transform="translate(502.5, 308)"><rect fill="white" rx="3" ry="3" x="-43.5" y="-13.1" width="87.1" height="22"/><text text-anchor="start" font-size="14pt" font-family="OpenSansCondensedLight" y="0.8em" display="null" xml:space="preserve" transform="translate(0,-11)"><tspan x="-34.2" y="0.8em">SIGNAL</tspan></text></g></g></g><g transform="translate(546,330)"><g><g>
<path d="M9.5,0C4.2,0,0,4.3,0,9.5s4.2,9.5,9.5,9.5s9.5,-4.3,9.5,-9.5S14.8,0,9.5,0L9.5,0z" stroke="#000000" stroke-dasharray="none" fill="#FFFFFF"/>
<rect x="1.9" y="4.8" width="15.3" height="9.3" fill="none"/>
<circle fill="none" cx="9.5" cy="0" r="0.1"/>
<circle fill="none" cx="14" cy="1.2" r="0.1"/>
<circle fill="none" cx="17.8" cy="4.9" r="0.1"/>
<circle fill="none" cx="19" cy="9.5" r="0.1"/>
<circle fill="none" cx="17.8" cy="14.2" r="0.1"/>
<circle fill="none" cx="14.2" cy="17.8" r="0.1"/>
<circle fill="none" cx="9.5" cy="19" r="0.1"/>
<circle fill="none" cx="4.8" cy="17.8" r="0.1"/>
<circle fill="none" cx="1.2" cy="14.2" r="0.1"/>
<circle fill="none" cx="0" cy="9.4" r="0.1"/>
<circle fill="none" cx="1.2" cy="4.9" r="0.1"/>
<circle fill="none" cx="4.9" cy="1.2" r="0.1"/>
</g></g><rect stroke="none" stroke-width="0" fill="#FFFFFF" x="0" y="0" width="0" height="0" transform="translate(18.9,9.4)"/><path stroke="#000000" fill="none" d=""/><text font-family="OpenSansCondensedLight" font-size="14pt" fill="black" transform="translate(18.9,9.4)"/><rect stroke-width="0" fill="none" width="15.3" height="9.3" transform="translate(1.9,4.8)"/><text font-family="OpenSansCondensedLight" font-size="14pt" fill="black" transform="translate(1.9,4.8)" text-anchor="middle"><tspan x="7.7" y="11"> </tspan></text><path stroke="#000000" fill="none" transform="translate(1.9,4.8)" d="M 0 0"/></g><g><path stroke="black" stroke-dasharray="none" d="M 565 341 755 341" fill="none"/><path fill="black" stroke="black" d="" transform="translate(565,341) scale(1,1) rotate(0)"/><path fill="black" stroke="black" d="M 8 0 L 0 4 L 8 8 z" transform="translate(763,345) scale(1,1) rotate(-180)"/><g><g label-idx="0" cursor="move" transform="translate(660, 341)"><rect fill="white" rx="3" ry="3" x="-53" y="-13.1" width="106.1" height="22"/><text text-anchor="start" font-size="14pt" font-family="OpenSansCondensedLight" y="0.8em" display="null" xml:space="preserve" transform="translate(0,-11)"><tspan x="-43.7" y="0.8em">DISPLAYS</tspan></text></g></g></g><g transform="translate(7,587)"><g><g>
<path d="M884,0H0v49h884V0L884,0z" stroke="none" stroke-dasharray="none" fill="#FFFFFF"/>
<rect x="38.7" y="2.2" width="806.7" height="44.5" fill="none"/>
<circle fill="none" cx="442" cy="0" r="0.1"/>
<circle fill="none" cx="661.1" cy="0" r="0.1"/>
<circle fill="none" cx="884" cy="12.4" r="0.1"/>
<circle fill="none" cx="884" cy="24.5" r="0.1"/>
<circle fill="none" cx="884" cy="36.6" r="0.1"/>
<circle fill="none" cx="661.1" cy="49" r="0.1"/>
<circle fill="none" cx="442" cy="49" r="0.1"/>
<circle fill="none" cx="223" cy="49" r="0.1"/>
<circle fill="none" cx="0" cy="36.6" r="0.1"/>
<circle fill="none" cx="0" cy="24.5" r="0.1"/>
<circle fill="none" cx="0" cy="12.4" r="0.1"/>
<circle fill="none" cx="223" cy="0" r="0.1"/>
</g></g><rect stroke="none" stroke-width="0" fill="#FFFFFF" x="0" y="0" width="0" height="0" transform="translate(883.9,24.4)"/><path stroke="#000000" fill="none" d=""/><text font-family="OpenSansCondensedLight" font-size="14pt" fill="black" transform="translate(883.9,24.4)"/><rect stroke-width="0" fill="none" width="806.7" height="44.5" transform="translate(38.7,2.2)"/><text font-family="OpenSansCondensedLight" font-size="14pt" fill="black" transform="translate(38.7,2.2)" text-anchor="middle"><tspan x="403.4" y="28.6"> </tspan></text><path stroke="#000000" fill="none" transform="translate(38.7,2.2)" d="M 0 0"/></g><g transform="translate(304,170)"><g><g>
<rect y="0" fill="#FFFFFF" width="30.2" height="30.2" stroke="none" stroke-dasharray="none"/>
<rect x="2.1" y="2.3" fill="none" width="26" height="25.7"/>
<circle fill="none" cx="15.1" cy="0" r="0.1"/>
<circle fill="none" cx="23.5" cy="0" r="0.1"/>
<circle fill="none" cx="30.2" cy="7.3" r="0.1"/>
<circle fill="none" cx="30.2" cy="14.7" r="0.1"/>
<circle fill="none" cx="30.2" cy="23" r="0.1"/>
<circle fill="none" cx="23.5" cy="30.2" r="0.1"/>
<circle fill="none" cx="15.1" cy="30.2" r="0.1"/>
<circle fill="none" cx="7.6" cy="30.2" r="0.1"/>
<circle fill="none" cx="0" cy="23" r="0.1"/>
<circle fill="none" cx="0" cy="14.7" r="0.1"/>
<circle fill="none" cx="0" cy="7.3" r="0.1"/>
<circle fill="none" cx="7.7" cy="0" r="0.1"/>
</g></g><rect stroke="none" stroke-width="0" fill="#FFFFFF" x="0" y="0" width="0" height="0" transform="translate(30.1,14.6)"/><path stroke="#000000" fill="none" d=""/><text font-family="OpenSansCondensedLight" font-size="14pt" fill="black" transform="translate(30.1,14.6)"/><rect stroke-width="0" fill="none" width="26" height="25.7" transform="translate(2.1,2.3)"/><text font-family="OpenSansCondensedLight" font-size="14pt" fill="black" text-decoration="none" transform="translate(2.1,2.3)" text-anchor="middle"><tspan x="13" y="19.2">418</tspan></text><path stroke="#000000" fill="none" transform="translate(2.1,2.3)"/></g><g><path stroke="black" stroke-dasharray="none" d="M 312 170 C 302 170 302 150 292 150" fill="none"/><path fill="black" stroke="black" d="" transform="translate(312,170) scale(1,1) rotate(-135)"/><path fill="black" stroke="black" d="" transform="translate(292,150) scale(1,1) rotate(45)"/><g><g label-idx="0" cursor="move" transform="translate(302, 160)"><rect fill="white" rx="3" ry="3" x="0" y="0" width="0" height="0"/><text text-anchor="middle" font-size="14pt" font-family="OpenSansCondensedLight" y="0.8em" display="none" xml:space="preserve" transform="translate(0,0)"/></g></g></g><g transform="translate(517,236)"><g><g>
<rect y="0" fill="#FFFFFF" width="30.2" height="30.2" stroke="none" stroke-dasharray="none"/>
<rect x="2.1" y="2.3" fill="none" width="26" height="25.7"/>
<circle fill="none" cx="15.1" cy="0" r="0.1"/>
<circle fill="none" cx="23.5" cy="0" r="0.1"/>
<circle fill="none" cx="30.2" cy="7.3" r="0.1"/>
<circle fill="none" cx="30.2" cy="14.7" r="0.1"/>
<circle fill="none" cx="30.2" cy="23" r="0.1"/>
<circle fill="none" cx="23.5" cy="30.2" r="0.1"/>
<circle fill="none" cx="15.1" cy="30.2" r="0.1"/>
<circle fill="none" cx="7.6" cy="30.2" r="0.1"/>
<circle fill="none" cx="0" cy="23" r="0.1"/>
<circle fill="none" cx="0" cy="14.7" r="0.1"/>
<circle fill="none" cx="0" cy="7.3" r="0.1"/>
<circle fill="none" cx="7.7" cy="0" r="0.1"/>
</g></g><rect stroke="none" stroke-width="0" fill="#FFFFFF" x="0" y="0" width="0" height="0" transform="translate(30.1,14.6)"/><path stroke="#000000" fill="none" d=""/><text font-family="OpenSansCondensedLight" font-size="14pt" fill="black" transform="translate(30.1,14.6)"/><rect stroke-width="0" fill="none" width="26" height="25.7" transform="translate(2.1,2.3)"/><text font-family="OpenSansCondensedLight" font-size="14pt" fill="black" text-decoration="none" transform="translate(2.1,2.3)" text-anchor="middle"><tspan x="13" y="19.2">424</tspan></text><path stroke="#000000" fill="none" transform="translate(2.1,2.3)"/></g><g transform="translate(479,133)"><g><g>
<rect y="0" fill="#FFFFFF" width="30.2" height="30.2" stroke="none" stroke-dasharray="none"/>
<rect x="2.1" y="2.3" fill="none" width="26" height="25.7"/>
<circle fill="none" cx="15.1" cy="0" r="0.1"/>
<circle fill="none" cx="23.5" cy="0" r="0.1"/>
<circle fill="none" cx="30.2" cy="7.3" r="0.1"/>
<circle fill="none" cx="30.2" cy="14.7" r="0.1"/>
<circle fill="none" cx="30.2" cy="23" r="0.1"/>
<circle fill="none" cx="23.5" cy="30.2" r="0.1"/>
<circle fill="none" cx="15.1" cy="30.2" r="0.1"/>
<circle fill="none" cx="7.6" cy="30.2" r="0.1"/>
<circle fill="none" cx="0" cy="23" r="0.1"/>
<circle fill="none" cx="0" cy="14.7" r="0.1"/>
<circle fill="none" cx="0" cy="7.3" r="0.1"/>
<circle fill="none" cx="7.7" cy="0" r="0.1"/>
</g></g><rect stroke="none" stroke-width="0" fill="#FFFFFF" x="0" y="0" width="0" height="0" transform="translate(30.1,14.6)"/><path stroke="#000000" fill="none" d=""/><text font-family="OpenSansCondensedLight" font-size="14pt" fill="black" transform="translate(30.1,14.6)"/><rect stroke-width="0" fill="none" width="26" height="25.7" transform="translate(2.1,2.3)"/><text font-family="OpenSansCondensedLight" font-size="14pt" fill="black" text-decoration="none" transform="translate(2.1,2.3)" text-anchor="middle"><tspan x="13" y="19.2">416</tspan></text><path stroke="#000000" fill="none" transform="translate(2.1,2.3)"/></g><g><path stroke="black" stroke-dasharray="none" d="M 487 133 C 471.5 133 471.5 106 456 106" fill="none"/><path fill="black" stroke="black" d="" transform="translate(487,133) scale(1,1) rotate(-138.9)"/><path fill="black" stroke="black" d="" transform="translate(456,106) scale(1,1) rotate(41.1)"/><g><g label-idx="0" cursor="move" transform="translate(471.5, 119.5)"><rect fill="white" rx="3" ry="3" x="0" y="0" width="0" height="0"/><text text-anchor="middle" font-size="14pt" font-family="OpenSansCondensedLight" y="0.8em" display="none" xml:space="preserve" transform="translate(0,0)"/></g></g></g><g><path stroke="black" stroke-dasharray="none" d="M 525 266 C 511.5 266 511.5 298 498 298" fill="none"/><path fill="black" stroke="black" d="" transform="translate(525,266) scale(1,1) rotate(-229.8)"/><path fill="black" stroke="black" d="" transform="translate(498,298) scale(1,1) rotate(-49.8)"/><g><g label-idx="0" cursor="move" transform="translate(511.5, 282)"><rect fill="white" rx="3" ry="3" x="0" y="0" width="0" height="0"/><text text-anchor="middle" font-size="14pt" font-family="OpenSansCondensedLight" y="0.8em" display="none" xml:space="preserve" transform="translate(0,0)"/></g></g></g><g transform="translate(267,303)"><g><g>
<rect y="0" fill="#FFFFFF" width="30.2" height="30.2" stroke="none" stroke-dasharray="none"/>
<rect x="2.1" y="2.3" fill="none" width="26" height="25.7"/>
<circle fill="none" cx="15.1" cy="0" r="0.1"/>
<circle fill="none" cx="23.5" cy="0" r="0.1"/>
<circle fill="none" cx="30.2" cy="7.3" r="0.1"/>
<circle fill="none" cx="30.2" cy="14.7" r="0.1"/>
<circle fill="none" cx="30.2" cy="23" r="0.1"/>
<circle fill="none" cx="23.5" cy="30.2" r="0.1"/>
<circle fill="none" cx="15.1" cy="30.2" r="0.1"/>
<circle fill="none" cx="7.6" cy="30.2" r="0.1"/>
<circle fill="none" cx="0" cy="23" r="0.1"/>
<circle fill="none" cx="0" cy="14.7" r="0.1"/>
<circle fill="none" cx="0" cy="7.3" r="0.1"/>
<circle fill="none" cx="7.7" cy="0" r="0.1"/>
</g></g><rect stroke="none" stroke-width="0" fill="#FFFFFF" x="0" y="0" width="0" height="0" transform="translate(30.1,14.6)"/><path stroke="#000000" fill="none" d=""/><text font-family="OpenSansCondensedLight" font-size="14pt" fill="black" transform="translate(30.1,14.6)"/><rect stroke-width="0" fill="none" width="26" height="25.7" transform="translate(2.1,2.3)"/><text font-family="OpenSansCondensedLight" font-size="14pt" fill="black" text-decoration="none" transform="translate(2.1,2.3)" text-anchor="middle"><tspan x="13" y="19.2">422</tspan></text><path stroke="#000000" fill="none" transform="translate(2.1,2.3)"/></g><g><path stroke="black" stroke-dasharray="none" d="M 290 303 C 298.5 303 298.5 250 307 250" fill="none"/><path fill="black" stroke="black" d="" transform="translate(290,303) scale(1,1) rotate(-72.2)"/><path fill="black" stroke="black" d="" transform="translate(307,250) scale(1,1) rotate(-252.2)"/><g><g label-idx="0" cursor="move" transform="translate(298.5, 276.5)"><rect fill="white" rx="3" ry="3" x="0" y="0" width="0" height="0"/><text text-anchor="middle" font-size="14pt" font-family="OpenSansCondensedLight" y="0.8em" display="none" xml:space="preserve" transform="translate(0,0)"/></g></g></g><g transform="translate(702,242)"><g><g>
<rect y="0" fill="#FFFFFF" width="30.2" height="30.2" stroke="none" stroke-dasharray="none"/>
<rect x="2.1" y="2.3" fill="none" width="26" height="25.7"/>
<circle fill="none" cx="15.1" cy="0" r="0.1"/>
<circle fill="none" cx="23.5" cy="0" r="0.1"/>
<circle fill="none" cx="30.2" cy="7.3" r="0.1"/>
<circle fill="none" cx="30.2" cy="14.7" r="0.1"/>
<circle fill="none" cx="30.2" cy="23" r="0.1"/>
<circle fill="none" cx="23.5" cy="30.2" r="0.1"/>
<circle fill="none" cx="15.1" cy="30.2" r="0.1"/>
<circle fill="none" cx="7.6" cy="30.2" r="0.1"/>
<circle fill="none" cx="0" cy="23" r="0.1"/>
<circle fill="none" cx="0" cy="14.7" r="0.1"/>
<circle fill="none" cx="0" cy="7.3" r="0.1"/>
<circle fill="none" cx="7.7" cy="0" r="0.1"/>
</g></g><rect stroke="none" stroke-width="0" fill="#FFFFFF" x="0" y="0" width="0" height="0" transform="translate(30.1,14.6)"/><path stroke="#000000" fill="none" d=""/><text font-family="OpenSansCondensedLight" font-size="14pt" fill="black" transform="translate(30.1,14.6)"/><rect stroke-width="0" fill="none" width="26" height="25.7" transform="translate(2.1,2.3)"/><text font-family="OpenSansCondensedLight" font-size="14pt" fill="black" text-decoration="none" transform="translate(2.1,2.3)" text-anchor="middle"><tspan x="13" y="19.2">426</tspan></text><path stroke="#000000" fill="none" transform="translate(2.1,2.3)"/></g><g><path stroke="black" stroke-dasharray="none" d="M 710 272 C 688.5 272 688.5 329 667 329" fill="none"/><path fill="black" stroke="black" d="" transform="translate(710,272) scale(1,1) rotate(-233)"/><path fill="black" stroke="black" d="" transform="translate(667,329) scale(1,1) rotate(-53)"/><g><g label-idx="0" cursor="move" transform="translate(688.5, 300.5)"><rect fill="white" rx="3" ry="3" x="0" y="0" width="0" height="0"/><text text-anchor="middle" font-size="14pt" font-family="OpenSansCondensedLight" y="0.8em" display="none" xml:space="preserve" transform="translate(0,0)"/></g></g></g><g transform="translate(339,590)"><g><g>
<path d="M116,0H0v46h116V0L116,0z" fill="none" stroke="none" stroke-dasharray="none"/>
<rect x="5.1" y="2.1" width="105.9" height="41.8" fill="none"/>
<circle fill="none" cx="58" cy="0" r="0.1"/>
<circle fill="none" cx="86.7" cy="0" r="0.1"/>
<circle fill="none" cx="116" cy="11.6" r="0.1"/>
<circle fill="none" cx="116" cy="23" r="0.1"/>
<circle fill="none" cx="116" cy="34.4" r="0.1"/>
<circle fill="none" cx="86.7" cy="46" r="0.1"/>
<circle fill="none" cx="58" cy="46" r="0.1"/>
<circle fill="none" cx="29.3" cy="46" r="0.1"/>
<circle fill="none" cx="0" cy="34.4" r="0.1"/>
<circle fill="none" cx="0" cy="23" r="0.1"/>
<circle fill="none" cx="0" cy="11.6" r="0.1"/>
<circle fill="none" cx="29.3" cy="0" r="0.1"/>
</g></g><rect stroke="none" stroke-width="0" fill="#FFFFFF" x="0" y="0" width="0" height="0" transform="translate(115.9,22.9)"/><path stroke="#000000" fill="none" d=""/><text font-family="OpenSansCondensedLight" font-size="14pt" fill="black" transform="translate(115.9,22.9)"/><rect stroke-width="0" fill="none" width="105.9" height="41.8" transform="translate(5.1,2.1)"/><text font-family="OpenSansCondensedLight" font-size="14pt" fill="black" transform="translate(5.1,2.1)" text-anchor="middle"><tspan x="52.9" y="16.7">(PRIOR</tspan><tspan x="52.9" y="37.7">ART)</tspan></text><path stroke="#000000" fill="none" transform="translate(5.1,2.1)" d="M 0 0"/></g></g><defs/></svg>