<svg xmlns="http://www.w3.org/2000/svg" xmlns:xlink="http://www.w3.org/1999/xlink" version="1.1" id="v-2963" width="664" height="867"><g id="v-2964" class="viewport"><g id="j_148" model-id="b9125d8b-ee54-40f2-b88a-7248cfce790b" class="element tp Element" transform="translate(603.2785453796387,17.875)"><polygon class="ui-arrowhead" fill="#000000" points="0,0 4.2,11.2 11.8,2" id="v-2966" transform="translate(-5.900000095367432,27.346454620361328)"/>
<rect class="ui-label-anchor" fill="none" width="1" height="1" id="v-2968" transform="translate(33.34645462036133,-0.5)"/>
<g class="rotatable" id="v-2970"><g class="scalable" id="v-2978">
<rect x="0" y="0" width="28.346454620361325" height="28.346454054219233" opacity="0" id="v-2979"/>
<path class="ui-stem" fill="none" stroke="#000000" stroke-width="1" d="M28.346454620361325,0C16.680798295828012,2.2261613131585785,6.977588829627404,13.356967878951469,0,28.346454054219233" id="v-2977"/>
</g></g><rect class="ui-number-box" id="v-2971" stroke="none" stroke-width="0" fill="#FFFFFF" x="0" y="0" width="0" height="0"/><path class="ui-number-leadline" id="v-2972" stroke="#000000" fill="none"/><text class="ui-number-label" id="v-2973" font-family="OpenSansCondensedLight" font-size="14pt" fill="black" transform="translate(0,0)"/><rect class="ui-label-box" id="v-2974" stroke-width="0" fill="none" width="1" height="1" transform="translate(33.34645462036133,-0.5)"/><text class="ui-label" id="v-2975" font-family="OpenSansCondensedLight" font-size="14pt" fill="black" text-decoration="none" transform="translate(33.34645462036133,-0.5)"><tspan x="0" y="6.800011250000001">500</tspan></text><path class="ui-number-underline" id="v-2976" stroke="#000000" fill="none" transform="translate(33.34645462036133,-0.5)"/></g><g id="j_154" model-id="cfb24448-727e-07ed-2942-edfafb7cd662" class="element tp Element" transform="translate(229,821)"><g class="rotatable" id="v-3090"><g class="scalable" id="v-3100">
<path class="ui-stroke js-perimeter" d="M115.99747760408961,0H0v45.99899973955278h115.99747760408961V0L115.99747760408961,0z" fill="none" id="v-3097" stroke="none" stroke-dasharray="none"/>
<rect class="ui-interior-label js-textbox" x="5.074574845250554" y="2.097218833110309" width="105.86091991072311" height="41.80456207333216" id="v-3098" fill="none"/>
<circle class="js-number-connector-1 js-link-connector" fill="none" cx="57.998738802044805" cy="0" r="0.1" id="v-3101"/>
<circle class="js-number-connector-2 js-link-connector" fill="none" cx="86.74626826037486" cy="0" r="0.1" id="v-3102"/>
<circle class="js-number-connector-3 js-link-connector" fill="none" cx="115.99747760408961" cy="11.599617498369637" r="0.1" id="v-3103"/>
<circle class="js-number-connector-4 js-link-connector" fill="none" cx="115.99747760408961" cy="22.99949986977639" r="0.1" id="v-3099"/>
<circle class="js-number-connector-5 js-link-connector" fill="none" cx="115.99747760408961" cy="34.39938224118314" r="0.1" id="v-3104"/>
<circle class="js-number-connector-6 js-link-connector" fill="none" cx="86.74626826037486" cy="45.99899973955278" r="0.1" id="v-3105"/>
<circle class="js-number-connector-7 js-link-connector" fill="none" cx="57.998738802044805" cy="45.99899973955278" r="0.1" id="v-3106"/>
<circle class="js-number-connector-8 js-link-connector" fill="none" cx="29.263801340849355" cy="45.99899973955278" r="0.1" id="v-3107"/>
<circle class="js-number-connector-9 js-link-connector" fill="none" cx="0" cy="34.39938224118314" r="0.1" id="v-3108"/>
<circle class="js-number-connector-10 js-link-connector" fill="none" cx="0" cy="22.99949986977639" r="0.1" id="v-3109"/>
<circle class="js-number-connector-11 js-link-connector" fill="none" cx="0" cy="11.599617498369637" r="0.1" id="v-3110"/>
<circle class="js-number-connector-12 js-link-connector" fill="none" cx="29.263801340849355" cy="0" r="0.1" id="v-3111"/>
</g></g><rect class="ui-number-box" id="v-3091" stroke="none" stroke-width="0" fill="#FFFFFF" x="0" y="0" width="0" height="0" transform="translate(115.89747619628906,22.899499893188477)"/><path class="ui-number-leadline" id="v-3092" stroke="#000000" fill="none" d=""/><text class="ui-number-label" id="v-3093" font-family="OpenSansCondensedLight" font-size="14pt" fill="black" transform="translate(115.89747619628906,22.899499893188477)"/><rect class="ui-label-box" id="v-3094" stroke-width="0" fill="none" width="105.8609185218811" height="41.80456042289734" transform="translate(5.074574947357178,2.0972187519073486)"/><text class="ui-label" id="v-3095" font-family="OpenSansCondensedLight" font-size="14pt" fill="black" transform="translate(5.074574947357178,2.0972187519073486)" text-anchor="middle"><tspan x="52.930458068847656" y="16.70227330749512">(PRIOR</tspan><tspan x="52.930458068847656" y="37.70231080749512">ART)</tspan></text><path class="ui-number-underline" id="v-3096" stroke="#000000" fill="none" transform="translate(5.074574947357178,2.0972187519073486)" d="M 0 0"/></g><g id="j_149" model-id="baca79b4-da53-49de-a0e8-444b4c7453de" class="element tp Element" transform="translate(196,147)"><g class="rotatable" id="v-2980"><g class="scalable" id="v-2990">
<path class="ui-fill ui-stroke js-perimeter" data-relative-d="M{width},0 H0 V{height} H{width} z" d="M226.77165985107422,0 H0 V47.590958606910604 H226.77165985107422 z" id="v-2987" stroke="#000000" stroke-dasharray="none" fill="#FFFFFF"/>
<path class="ui-interior-label" data-relative-d="M{0.1cm},{0.1cm} V{height-0.05cm} H{width-0.1cm} V{0.1cm} z" d="M3.7795276641845703,3.7795276641845703 V45.70119477481832 H222.99213218688965 V3.7795276641845703 z" id="v-2988" fill="none"/>
<path fill="none" data-relative-d="M{0.5*width},0 l0.1,0 l0,0.1 z" d="M113.38582992553711,0 l0.1,0 l0,0.1 z" class="js-link-connector js-number-connector-1" id="v-2991"/>
<path fill="none" data-relative-d="M{0.75*width},0 l0.1,0 l0,0.1 z" d="M170.07874488830566,0 l0.1,0 l0,0.1 z" class="js-link-connector js-number-connector-2" id="v-2992"/>
<path fill="none" data-relative-d="M{width},{0.25*height} l0.1,0 l0,0.1 z" d="M226.77165985107422,11.897739651727651 l0.1,0 l0,0.1 z" class="js-link-connector js-number-connector-3" id="v-2993"/>
<path fill="none" data-relative-d="M{width},{0.5*height} l0.1,0 l0,0.1 z" d="M226.77165985107422,23.795479303455302 l0.1,0 l0,0.1 z" class="js-link-connector js-number-connector-4" id="v-2989"/>
<path fill="none" data-relative-d="M{width},{0.75*height} l0.1,0 l0,0.1 z" d="M226.77165985107422,35.69321895518296 l0.1,0 l0,0.1 z" class="js-link-connector js-number-connector-5" id="v-2994"/>
<path fill="none" data-relative-d="M{0.75*width},{height} l0.1,0 l0,0.1 z" d="M170.07874488830566,47.590958606910604 l0.1,0 l0,0.1 z" class="js-link-connector js-number-connector-6" id="v-2995"/>
<path fill="none" data-relative-d="M{0.5*width},{height} l0.1,0 l0,0.1 z" d="M113.38582992553711,47.590958606910604 l0.1,0 l0,0.1 z" class="js-link-connector js-number-connector-7" id="v-2996"/>
<path fill="none" data-relative-d="M{0.25*width},{height} l0.1,0 l0,0.1 z" d="M56.692914962768555,47.590958606910604 l0.1,0 l0,0.1 z" class="js-link-connector js-number-connector-8" id="v-2997"/>
<path fill="none" data-relative-d="M0,{0.75*height} l0.1,0 l0,0.1 z" d="M0,35.69321895518296 l0.1,0 l0,0.1 z" class="js-link-connector js-number-connector-9" id="v-2998"/>
<path fill="none" data-relative-d="M0,{0.5*height} l0.1,0 l0,0.1 z" d="M0,23.795479303455302 l0.1,0 l0,0.1 z" class="js-link-connector js-number-connector-10" id="v-2999"/>
<path fill="none" data-relative-d="M0,{0.25*height} l0.1,0 l0,0.1 z" d="M0,11.897739651727651 l0.1,0 l0,0.1 z" class="js-link-connector js-number-connector-11" id="v-3000"/>
<path fill="none" data-relative-d="M{0.25*width},0 l0.1,0 l0,0.1 z" d="M56.692914962768555,0 l0.1,0 l0,0.1 z" class="js-link-connector js-number-connector-12" id="v-3001"/>
</g></g><rect class="ui-number-box" id="v-2981" stroke="none" stroke-width="0" fill="#FFFFFF" x="0" y="0" width="0" height="0" transform="translate(226.7716522216797,23.79547882080078)"/><path class="ui-number-leadline" id="v-2982" stroke="#000000" fill="none" d=""/><text class="ui-number-label" id="v-2983" font-family="OpenSansCondensedLight" font-size="14pt" fill="black" transform="translate(226.7716522216797,23.79547882080078)"/><rect class="ui-label-box" id="v-2984" stroke-width="0" fill="none" width="219.21259880065918" height="41.92166709899902" transform="translate(3.7795276641845703,3.7795276641845703)"/><text class="ui-label" id="v-2985" font-family="OpenSansCondensedLight" font-size="14pt" fill="black" transform="translate(3.7795276641845703,3.7795276641845703)" text-anchor="middle"><tspan x="109.6063003540039" y="6.260808253173831">LOAD FLUORESCENTLY</tspan><tspan x="109.6063003540039" y="27.26084575317383">LABELED SAMPLE INTO</tspan><tspan x="109.6063003540039" y="48.26088325317383">INSTRUMENT 504</tspan></text><path class="ui-number-underline" id="v-2986" stroke="#000000" fill="none" transform="translate(3.7795276641845703,3.7795276641845703)" d="M 158.0693817138672 50 186.05934143066406 50"/></g><g id="j_150" model-id="3d9f6e5b-cd02-42f0-bf54-88cfbb630cb7" class="element tp Element" transform="translate(195,53)"><g class="rotatable" id="v-3002"><g class="scalable" id="v-3012">
<path class="ui-fill ui-stroke js-perimeter" data-relative-d="M{width},0 H0 V{height} H{width} z" d="M226.77165985107422,0 H0 V47.59121135855269 H226.77165985107422 z" id="v-3009" stroke="#000000" stroke-dasharray="none" fill="#FFFFFF"/>
<path class="ui-interior-label" data-relative-d="M{0.1cm},{0.1cm} V{height-0.05cm} H{width-0.1cm} V{0.1cm} z" d="M3.7795276641845703,3.7795276641845703 V45.701447526460406 H222.99213218688965 V3.7795276641845703 z" id="v-3010" fill="none"/>
<path fill="none" data-relative-d="M{0.5*width},0 l0.1,0 l0,0.1 z" d="M113.38582992553711,0 l0.1,0 l0,0.1 z" class="js-link-connector js-number-connector-1" id="v-3013"/>
<path fill="none" data-relative-d="M{0.75*width},0 l0.1,0 l0,0.1 z" d="M170.07874488830566,0 l0.1,0 l0,0.1 z" class="js-link-connector js-number-connector-2" id="v-3014"/>
<path fill="none" data-relative-d="M{width},{0.25*height} l0.1,0 l0,0.1 z" d="M226.77165985107422,11.897802839638173 l0.1,0 l0,0.1 z" class="js-link-connector js-number-connector-3" id="v-3015"/>
<path fill="none" data-relative-d="M{width},{0.5*height} l0.1,0 l0,0.1 z" d="M226.77165985107422,23.795605679276346 l0.1,0 l0,0.1 z" class="js-link-connector js-number-connector-4" id="v-3011"/>
<path fill="none" data-relative-d="M{width},{0.75*height} l0.1,0 l0,0.1 z" d="M226.77165985107422,35.69340851891452 l0.1,0 l0,0.1 z" class="js-link-connector js-number-connector-5" id="v-3016"/>
<path fill="none" data-relative-d="M{0.75*width},{height} l0.1,0 l0,0.1 z" d="M170.07874488830566,47.59121135855269 l0.1,0 l0,0.1 z" class="js-link-connector js-number-connector-6" id="v-3017"/>
<path fill="none" data-relative-d="M{0.5*width},{height} l0.1,0 l0,0.1 z" d="M113.38582992553711,47.59121135855269 l0.1,0 l0,0.1 z" class="js-link-connector js-number-connector-7" id="v-3018"/>
<path fill="none" data-relative-d="M{0.25*width},{height} l0.1,0 l0,0.1 z" d="M56.692914962768555,47.59121135855269 l0.1,0 l0,0.1 z" class="js-link-connector js-number-connector-8" id="v-3019"/>
<path fill="none" data-relative-d="M0,{0.75*height} l0.1,0 l0,0.1 z" d="M0,35.69340851891452 l0.1,0 l0,0.1 z" class="js-link-connector js-number-connector-9" id="v-3020"/>
<path fill="none" data-relative-d="M0,{0.5*height} l0.1,0 l0,0.1 z" d="M0,23.795605679276346 l0.1,0 l0,0.1 z" class="js-link-connector js-number-connector-10" id="v-3021"/>
<path fill="none" data-relative-d="M0,{0.25*height} l0.1,0 l0,0.1 z" d="M0,11.897802839638173 l0.1,0 l0,0.1 z" class="js-link-connector js-number-connector-11" id="v-3022"/>
<path fill="none" data-relative-d="M{0.25*width},0 l0.1,0 l0,0.1 z" d="M56.692914962768555,0 l0.1,0 l0,0.1 z" class="js-link-connector js-number-connector-12" id="v-3023"/>
</g></g><rect class="ui-number-box" id="v-3003" stroke="none" stroke-width="0" fill="#FFFFFF" x="0" y="0" width="0" height="0" transform="translate(226.7716522216797,23.795604705810547)"/><path class="ui-number-leadline" id="v-3004" stroke="#000000" fill="none" d=""/><text class="ui-number-label" id="v-3005" font-family="OpenSansCondensedLight" font-size="14pt" fill="black" transform="translate(226.7716522216797,23.795604705810547)"/><rect class="ui-label-box" id="v-3006" stroke-width="0" fill="none" width="219.21259880065918" height="41.921918869018555" transform="translate(3.7795276641845703,3.7795276641845703)"/><text class="ui-label" id="v-3007" font-family="OpenSansCondensedLight" font-size="14pt" fill="black" transform="translate(3.7795276641845703,3.7795276641845703)" text-anchor="middle"><tspan x="109.6063003540039" y="6.260934138183597">CONFIGURE</tspan><tspan x="109.6063003540039" y="27.260971638183594">INSTRUMENT</tspan><tspan x="109.6063003540039" y="48.261009138183596">PARAMETERS 502</tspan></text><path class="ui-number-underline" id="v-3008" stroke="#000000" fill="none" transform="translate(3.7795276641845703,3.7795276641845703)" d="M 158.78006744384766 50 186.77002716064453 50"/></g><g id="j_158" model-id="0e83a44c-ecca-4ed7-b3c6-de1c674d6406" class="tp Link link"><path class="connection" stroke="black" id="v-3170" stroke-dasharray="none" d="M 309 101 309 139"/><path class="marker-source" fill="black" stroke="black" id="v-3171" d="" transform="translate(309,101) scale(1,1) rotate(-270)"/><path class="marker-target" fill="black" stroke="black" id="v-3172" d="M 8 0 L 0 4 L 8 8 z" transform="translate(305,147) scale(1,1) rotate(-90)"/><g class="labels" id="v-3174"><g class="js-link-label" id="v-3182" label-idx="0" cursor="move" transform="translate(309, 120)"><rect fill="white" rx="3" ry="3" x="0" y="0" width="0" height="0"/><text class="ui-link-label" text-anchor="middle" font-size="14pt" font-family="OpenSansCondensedLight" id="v-3183" y="0.8em" display="none" xml:space="preserve" transform="translate(0,0)"/></g></g></g><g id="j_152" model-id="2981f3bb-e016-426c-948e-1ea322725955" class="element tp Element" transform="translate(196,358.0840133416913)"><g class="rotatable" id="v-3046"><g class="scalable" id="v-3056">
<path class="ui-fill ui-stroke js-perimeter" data-relative-d="M{width},0 H0 V{height} H{width} z" d="M226.77165985107422,0 H0 V89.6388136315488 H226.77165985107422 z" id="v-3053" stroke="#000000" stroke-dasharray="none" fill="#FFFFFF"/>
<path class="ui-interior-label" data-relative-d="M{0.1cm},{0.1cm} V{height-0.05cm} H{width-0.1cm} V{0.1cm} z" d="M3.7795276641845703,3.7795276641845703 V87.74904979945651 H222.99213218688965 V3.7795276641845703 z" id="v-3054" fill="none"/>
<path fill="none" data-relative-d="M{0.5*width},0 l0.1,0 l0,0.1 z" d="M113.38582992553711,0 l0.1,0 l0,0.1 z" class="js-link-connector js-number-connector-1" id="v-3057"/>
<path fill="none" data-relative-d="M{0.75*width},0 l0.1,0 l0,0.1 z" d="M170.07874488830566,0 l0.1,0 l0,0.1 z" class="js-link-connector js-number-connector-2" id="v-3058"/>
<path fill="none" data-relative-d="M{width},{0.25*height} l0.1,0 l0,0.1 z" d="M226.77165985107422,22.4097034078872 l0.1,0 l0,0.1 z" class="js-link-connector js-number-connector-3" id="v-3059"/>
<path fill="none" data-relative-d="M{width},{0.5*height} l0.1,0 l0,0.1 z" d="M226.77165985107422,44.8194068157744 l0.1,0 l0,0.1 z" class="js-link-connector js-number-connector-4" id="v-3055"/>
<path fill="none" data-relative-d="M{width},{0.75*height} l0.1,0 l0,0.1 z" d="M226.77165985107422,67.22911022366159 l0.1,0 l0,0.1 z" class="js-link-connector js-number-connector-5" id="v-3060"/>
<path fill="none" data-relative-d="M{0.75*width},{height} l0.1,0 l0,0.1 z" d="M170.07874488830566,89.6388136315488 l0.1,0 l0,0.1 z" class="js-link-connector js-number-connector-6" id="v-3061"/>
<path fill="none" data-relative-d="M{0.5*width},{height} l0.1,0 l0,0.1 z" d="M113.38582992553711,89.6388136315488 l0.1,0 l0,0.1 z" class="js-link-connector js-number-connector-7" id="v-3062"/>
<path fill="none" data-relative-d="M{0.25*width},{height} l0.1,0 l0,0.1 z" d="M56.692914962768555,89.6388136315488 l0.1,0 l0,0.1 z" class="js-link-connector js-number-connector-8" id="v-3063"/>
<path fill="none" data-relative-d="M0,{0.75*height} l0.1,0 l0,0.1 z" d="M0,67.22911022366159 l0.1,0 l0,0.1 z" class="js-link-connector js-number-connector-9" id="v-3064"/>
<path fill="none" data-relative-d="M0,{0.5*height} l0.1,0 l0,0.1 z" d="M0,44.8194068157744 l0.1,0 l0,0.1 z" class="js-link-connector js-number-connector-10" id="v-3065"/>
<path fill="none" data-relative-d="M0,{0.25*height} l0.1,0 l0,0.1 z" d="M0,22.4097034078872 l0.1,0 l0,0.1 z" class="js-link-connector js-number-connector-11" id="v-3066"/>
<path fill="none" data-relative-d="M{0.25*width},0 l0.1,0 l0,0.1 z" d="M56.692914962768555,0 l0.1,0 l0,0.1 z" class="js-link-connector js-number-connector-12" id="v-3067"/>
</g></g><rect class="ui-number-box" id="v-3047" stroke="none" stroke-width="0" fill="#FFFFFF" x="0" y="0" width="0" height="0" transform="translate(226.7716522216797,44.81940841674805)"/><path class="ui-number-leadline" id="v-3048" stroke="#000000" fill="none" d=""/><text class="ui-number-label" id="v-3049" font-family="OpenSansCondensedLight" font-size="14pt" fill="black" transform="translate(226.7716522216797,44.81940841674805)"/><rect class="ui-label-box" id="v-3050" stroke-width="0" fill="none" width="219.21259880065918" height="83.96951866149902" transform="translate(3.7795276641845703,3.7795276641845703)"/><text class="ui-label" id="v-3051" font-family="OpenSansCondensedLight" font-size="14pt" fill="black" transform="translate(3.7795276641845703,3.7795276641845703)" text-anchor="middle"><tspan x="109.6063003540039" y="-4.215322215576165">DETECT FLUORESCENT</tspan><tspan x="109.6063003540039" y="16.784715284423832">SIGNAL FROM</tspan><tspan x="109.6063003540039" y="37.78475278442383">FLUORESCENTLY</tspan><tspan x="109.6063003540039" y="58.78479028442383">LABLED SAMPLE</tspan><tspan x="109.6063003540039" y="79.78482778442383">PASSING THROUGH</tspan><tspan x="109.6063003540039" y="100.7848652844238">OPTICAL SENSOR 508</tspan></text><path class="ui-number-underline" id="v-3052" stroke="#000000" fill="none" transform="translate(3.7795276641845703,3.7795276641845703)" d="M 175.44466400146484 103 203.43462371826172 103"/></g><g id="j_160" model-id="5e3eb9af-dd7f-4e1d-9a5e-70752e0ccf75" class="tp Link link"><path class="connection" stroke="black" id="v-3198" stroke-dasharray="none" d="M 309 195 309 233"/><path class="marker-source" fill="black" stroke="black" id="v-3199" d="" transform="translate(309,195) scale(1,1) rotate(-270)"/><path class="marker-target" fill="black" stroke="black" id="v-3200" d="M 8 0 L 0 4 L 8 8 z" transform="translate(305,241) scale(1,1) rotate(-90)"/><g class="labels" id="v-3202"><g class="js-link-label" id="v-3210" label-idx="0" cursor="move" transform="translate(309, 214)"><rect fill="white" rx="3" ry="3" x="0" y="0" width="0" height="0"/><text class="ui-link-label" text-anchor="middle" font-size="14pt" font-family="OpenSansCondensedLight" id="v-3211" y="0.8em" display="none" xml:space="preserve" transform="translate(0,0)"/></g></g></g><g id="j_156" model-id="5a7d8600-dd6d-48b0-9cb9-690a161029f6" class="element tp Element" transform="translate(196,240.91573390666662)"><g class="rotatable" id="v-3134"><g class="scalable" id="v-3144">
<path class="ui-fill ui-stroke js-perimeter" data-relative-d="M{width},0 H0 V{height} H{width} z" d="M226.77165985107422,0 H0 V68.62553790587567 H226.77165985107422 z" id="v-3141" stroke="#000000" stroke-dasharray="none" fill="#FFFFFF"/>
<path class="ui-interior-label" data-relative-d="M{0.1cm},{0.1cm} V{height-0.05cm} H{width-0.1cm} V{0.1cm} z" d="M3.7795276641845703,3.7795276641845703 V66.73577407378339 H222.99213218688965 V3.7795276641845703 z" id="v-3142" fill="none"/>
<path fill="none" data-relative-d="M{0.5*width},0 l0.1,0 l0,0.1 z" d="M113.38582992553711,0 l0.1,0 l0,0.1 z" class="js-link-connector js-number-connector-1" id="v-3145"/>
<path fill="none" data-relative-d="M{0.75*width},0 l0.1,0 l0,0.1 z" d="M170.07874488830566,0 l0.1,0 l0,0.1 z" class="js-link-connector js-number-connector-2" id="v-3146"/>
<path fill="none" data-relative-d="M{width},{0.25*height} l0.1,0 l0,0.1 z" d="M226.77165985107422,17.15638447646892 l0.1,0 l0,0.1 z" class="js-link-connector js-number-connector-3" id="v-3147"/>
<path fill="none" data-relative-d="M{width},{0.5*height} l0.1,0 l0,0.1 z" d="M226.77165985107422,34.31276895293784 l0.1,0 l0,0.1 z" class="js-link-connector js-number-connector-4" id="v-3143"/>
<path fill="none" data-relative-d="M{width},{0.75*height} l0.1,0 l0,0.1 z" d="M226.77165985107422,51.46915342940676 l0.1,0 l0,0.1 z" class="js-link-connector js-number-connector-5" id="v-3148"/>
<path fill="none" data-relative-d="M{0.75*width},{height} l0.1,0 l0,0.1 z" d="M170.07874488830566,68.62553790587567 l0.1,0 l0,0.1 z" class="js-link-connector js-number-connector-6" id="v-3149"/>
<path fill="none" data-relative-d="M{0.5*width},{height} l0.1,0 l0,0.1 z" d="M113.38582992553711,68.62553790587567 l0.1,0 l0,0.1 z" class="js-link-connector js-number-connector-7" id="v-3150"/>
<path fill="none" data-relative-d="M{0.25*width},{height} l0.1,0 l0,0.1 z" d="M56.692914962768555,68.62553790587567 l0.1,0 l0,0.1 z" class="js-link-connector js-number-connector-8" id="v-3151"/>
<path fill="none" data-relative-d="M0,{0.75*height} l0.1,0 l0,0.1 z" d="M0,51.46915342940676 l0.1,0 l0,0.1 z" class="js-link-connector js-number-connector-9" id="v-3152"/>
<path fill="none" data-relative-d="M0,{0.5*height} l0.1,0 l0,0.1 z" d="M0,34.31276895293784 l0.1,0 l0,0.1 z" class="js-link-connector js-number-connector-10" id="v-3153"/>
<path fill="none" data-relative-d="M0,{0.25*height} l0.1,0 l0,0.1 z" d="M0,17.15638447646892 l0.1,0 l0,0.1 z" class="js-link-connector js-number-connector-11" id="v-3154"/>
<path fill="none" data-relative-d="M{0.25*width},0 l0.1,0 l0,0.1 z" d="M56.692914962768555,0 l0.1,0 l0,0.1 z" class="js-link-connector js-number-connector-12" id="v-3155"/>
</g></g><rect class="ui-number-box" id="v-3135" stroke="none" stroke-width="0" fill="#FFFFFF" x="0" y="0" width="0" height="0" transform="translate(226.7716522216797,34.312767028808594)"/><path class="ui-number-leadline" id="v-3136" stroke="#000000" fill="none" d=""/><text class="ui-number-label" id="v-3137" font-family="OpenSansCondensedLight" font-size="14pt" fill="black" transform="translate(226.7716522216797,34.312767028808594)"/><rect class="ui-label-box" id="v-3138" stroke-width="0" fill="none" width="219.21259880065918" height="62.95624351501465" transform="translate(3.7795276641845703,3.7795276641845703)"/><text class="ui-label" id="v-3139" font-family="OpenSansCondensedLight" font-size="14pt" fill="black" transform="translate(3.7795276641845703,3.7795276641845703)" text-anchor="middle"><tspan x="109.6063003540039" y="6.278077711181645">APPLY VOLTAGE FROM</tspan><tspan x="109.6063003540039" y="27.278115211181643">POWER SOURCE TO</tspan><tspan x="109.6063003540039" y="48.27815271118164">ELETRODES IN BUFFER</tspan><tspan x="109.6063003540039" y="69.27819021118164">506</tspan></text><path class="ui-number-underline" id="v-3140" stroke="#000000" fill="none" transform="translate(3.7795276641845703,3.7795276641845703)" d="M 95.61132049560547 71 123.60128021240234 71"/></g><g id="j_162" model-id="93a8f89c-d095-4605-ad98-36c576f6dc91" class="tp Link link"><path class="connection" stroke="black" id="v-3226" stroke-dasharray="none" d="M 309 310 309 350"/><path class="marker-source" fill="black" stroke="black" id="v-3227" d="" transform="translate(309,310) scale(1,1) rotate(-270)"/><path class="marker-target" fill="black" stroke="black" id="v-3228" d="M 8 0 L 0 4 L 8 8 z" transform="translate(305,358) scale(1,1) rotate(-90)"/><g class="labels" id="v-3230"><g class="js-link-label" id="v-3238" label-idx="0" cursor="move" transform="translate(309, 330)"><rect fill="white" rx="3" ry="3" x="0" y="0" width="0" height="0"/><text class="ui-link-label" text-anchor="middle" font-size="14pt" font-family="OpenSansCondensedLight" id="v-3239" y="0.8em" display="none" xml:space="preserve" transform="translate(0,0)"/></g></g></g><g id="j_155" model-id="83985904-2236-4c83-8add-1fa0ce97d6fa" class="element tp Element" transform="translate(196,496.2655685023891)"><g class="rotatable" id="v-3112"><g class="scalable" id="v-3122">
<path class="ui-fill ui-stroke js-perimeter" data-relative-d="M{width},0 H0 V{height} H{width} z" d="M226.77165985107422,0 H0 V68.625211073579 H226.77165985107422 z" id="v-3119" stroke="#000000" stroke-dasharray="none" fill="#FFFFFF"/>
<path class="ui-interior-label" data-relative-d="M{0.1cm},{0.1cm} V{height-0.05cm} H{width-0.1cm} V{0.1cm} z" d="M3.7795276641845703,3.7795276641845703 V66.73544724148671 H222.99213218688965 V3.7795276641845703 z" id="v-3120" fill="none"/>
<path fill="none" data-relative-d="M{0.5*width},0 l0.1,0 l0,0.1 z" d="M113.38582992553711,0 l0.1,0 l0,0.1 z" class="js-link-connector js-number-connector-1" id="v-3123"/>
<path fill="none" data-relative-d="M{0.75*width},0 l0.1,0 l0,0.1 z" d="M170.07874488830566,0 l0.1,0 l0,0.1 z" class="js-link-connector js-number-connector-2" id="v-3124"/>
<path fill="none" data-relative-d="M{width},{0.25*height} l0.1,0 l0,0.1 z" d="M226.77165985107422,17.15630276839475 l0.1,0 l0,0.1 z" class="js-link-connector js-number-connector-3" id="v-3125"/>
<path fill="none" data-relative-d="M{width},{0.5*height} l0.1,0 l0,0.1 z" d="M226.77165985107422,34.3126055367895 l0.1,0 l0,0.1 z" class="js-link-connector js-number-connector-4" id="v-3121"/>
<path fill="none" data-relative-d="M{width},{0.75*height} l0.1,0 l0,0.1 z" d="M226.77165985107422,51.46890830518424 l0.1,0 l0,0.1 z" class="js-link-connector js-number-connector-5" id="v-3126"/>
<path fill="none" data-relative-d="M{0.75*width},{height} l0.1,0 l0,0.1 z" d="M170.07874488830566,68.625211073579 l0.1,0 l0,0.1 z" class="js-link-connector js-number-connector-6" id="v-3127"/>
<path fill="none" data-relative-d="M{0.5*width},{height} l0.1,0 l0,0.1 z" d="M113.38582992553711,68.625211073579 l0.1,0 l0,0.1 z" class="js-link-connector js-number-connector-7" id="v-3128"/>
<path fill="none" data-relative-d="M{0.25*width},{height} l0.1,0 l0,0.1 z" d="M56.692914962768555,68.625211073579 l0.1,0 l0,0.1 z" class="js-link-connector js-number-connector-8" id="v-3129"/>
<path fill="none" data-relative-d="M0,{0.75*height} l0.1,0 l0,0.1 z" d="M0,51.46890830518424 l0.1,0 l0,0.1 z" class="js-link-connector js-number-connector-9" id="v-3130"/>
<path fill="none" data-relative-d="M0,{0.5*height} l0.1,0 l0,0.1 z" d="M0,34.3126055367895 l0.1,0 l0,0.1 z" class="js-link-connector js-number-connector-10" id="v-3131"/>
<path fill="none" data-relative-d="M0,{0.25*height} l0.1,0 l0,0.1 z" d="M0,17.15630276839475 l0.1,0 l0,0.1 z" class="js-link-connector js-number-connector-11" id="v-3132"/>
<path fill="none" data-relative-d="M{0.25*width},0 l0.1,0 l0,0.1 z" d="M56.692914962768555,0 l0.1,0 l0,0.1 z" class="js-link-connector js-number-connector-12" id="v-3133"/>
</g></g><rect class="ui-number-box" id="v-3113" stroke="none" stroke-width="0" fill="#FFFFFF" x="0" y="0" width="0" height="0" transform="translate(226.7716522216797,34.31260681152344)"/><path class="ui-number-leadline" id="v-3114" stroke="#000000" fill="none" d=""/><text class="ui-number-label" id="v-3115" font-family="OpenSansCondensedLight" font-size="14pt" fill="black" transform="translate(226.7716522216797,34.31260681152344)"/><rect class="ui-label-box" id="v-3116" stroke-width="0" fill="none" width="219.21259880065918" height="62.955923080444336" transform="translate(3.7795276641845703,3.7795276641845703)"/><text class="ui-label" id="v-3117" font-family="OpenSansCondensedLight" font-size="14pt" fill="black" transform="translate(3.7795276641845703,3.7795276641845703)" text-anchor="middle"><tspan x="109.6063003540039" y="-4.222101256103507">AGGREGATE RAW</tspan><tspan x="109.6063003540039" y="16.77793624389649">IMAGE DATA FROM</tspan><tspan x="109.6063003540039" y="37.77797374389649">OPTICAL SENSOR AT</tspan><tspan x="109.6063003540039" y="58.778011243896486">COMPUTING DEVICE</tspan><tspan x="109.6063003540039" y="79.77804874389648">510</tspan></text><path class="ui-number-underline" id="v-3118" stroke="#000000" fill="none" transform="translate(3.7795276641845703,3.7795276641845703)" d="M 95.61132049560547 82 123.60128021240234 82"/></g><g id="j_161" model-id="afe89ea9-4fbd-41a2-adac-a01d1d6a64f9" class="tp Link link"><path class="connection" stroke="black" id="v-3212" stroke-dasharray="none" d="M 309 448 309 488"/><path class="marker-source" fill="black" stroke="black" id="v-3213" d="" transform="translate(309,448) scale(1,1) rotate(-270)"/><path class="marker-target" fill="black" stroke="black" id="v-3214" d="M 8 0 L 0 4 L 8 8 z" transform="translate(305,496) scale(1,1) rotate(-90)"/><g class="labels" id="v-3216"><g class="js-link-label" id="v-3224" label-idx="0" cursor="move" transform="translate(309, 468)"><rect fill="white" rx="3" ry="3" x="0" y="0" width="0" height="0"/><text class="ui-link-label" text-anchor="middle" font-size="14pt" font-family="OpenSansCondensedLight" id="v-3225" y="0.8em" display="none" xml:space="preserve" transform="translate(0,0)"/></g></g></g><g id="j_153" model-id="e46a9b37-cf09-4b02-8bc7-460862a7bf3f" class="element tp Element" transform="translate(196,613.433521105117)"><g class="rotatable" id="v-3068"><g class="scalable" id="v-3078">
<path class="ui-fill ui-stroke js-perimeter" data-relative-d="M{width},0 H0 V{height} H{width} z" d="M226.77165985107422,0 H0 V26.71322247802708 H226.77165985107422 z" id="v-3075" stroke="#000000" stroke-dasharray="none" fill="#FFFFFF"/>
<path class="ui-interior-label" data-relative-d="M{0.1cm},{0.1cm} V{height-0.05cm} H{width-0.1cm} V{0.1cm} z" d="M3.7795276641845703,3.7795276641845703 V24.823458645934796 H222.99213218688965 V3.7795276641845703 z" id="v-3076" fill="none"/>
<path fill="none" data-relative-d="M{0.5*width},0 l0.1,0 l0,0.1 z" d="M113.38582992553711,0 l0.1,0 l0,0.1 z" class="js-link-connector js-number-connector-1" id="v-3079"/>
<path fill="none" data-relative-d="M{0.75*width},0 l0.1,0 l0,0.1 z" d="M170.07874488830566,0 l0.1,0 l0,0.1 z" class="js-link-connector js-number-connector-2" id="v-3080"/>
<path fill="none" data-relative-d="M{width},{0.25*height} l0.1,0 l0,0.1 z" d="M226.77165985107422,6.67830561950677 l0.1,0 l0,0.1 z" class="js-link-connector js-number-connector-3" id="v-3081"/>
<path fill="none" data-relative-d="M{width},{0.5*height} l0.1,0 l0,0.1 z" d="M226.77165985107422,13.35661123901354 l0.1,0 l0,0.1 z" class="js-link-connector js-number-connector-4" id="v-3077"/>
<path fill="none" data-relative-d="M{width},{0.75*height} l0.1,0 l0,0.1 z" d="M226.77165985107422,20.03491685852031 l0.1,0 l0,0.1 z" class="js-link-connector js-number-connector-5" id="v-3082"/>
<path fill="none" data-relative-d="M{0.75*width},{height} l0.1,0 l0,0.1 z" d="M170.07874488830566,26.71322247802708 l0.1,0 l0,0.1 z" class="js-link-connector js-number-connector-6" id="v-3083"/>
<path fill="none" data-relative-d="M{0.5*width},{height} l0.1,0 l0,0.1 z" d="M113.38582992553711,26.71322247802708 l0.1,0 l0,0.1 z" class="js-link-connector js-number-connector-7" id="v-3084"/>
<path fill="none" data-relative-d="M{0.25*width},{height} l0.1,0 l0,0.1 z" d="M56.692914962768555,26.71322247802708 l0.1,0 l0,0.1 z" class="js-link-connector js-number-connector-8" id="v-3085"/>
<path fill="none" data-relative-d="M0,{0.75*height} l0.1,0 l0,0.1 z" d="M0,20.03491685852031 l0.1,0 l0,0.1 z" class="js-link-connector js-number-connector-9" id="v-3086"/>
<path fill="none" data-relative-d="M0,{0.5*height} l0.1,0 l0,0.1 z" d="M0,13.35661123901354 l0.1,0 l0,0.1 z" class="js-link-connector js-number-connector-10" id="v-3087"/>
<path fill="none" data-relative-d="M0,{0.25*height} l0.1,0 l0,0.1 z" d="M0,6.67830561950677 l0.1,0 l0,0.1 z" class="js-link-connector js-number-connector-11" id="v-3088"/>
<path fill="none" data-relative-d="M{0.25*width},0 l0.1,0 l0,0.1 z" d="M56.692914962768555,0 l0.1,0 l0,0.1 z" class="js-link-connector js-number-connector-12" id="v-3089"/>
</g></g><rect class="ui-number-box" id="v-3069" stroke="none" stroke-width="0" fill="#FFFFFF" x="0" y="0" width="0" height="0" transform="translate(226.7716522216797,13.356611251831055)"/><path class="ui-number-leadline" id="v-3070" stroke="#000000" fill="none" d=""/><text class="ui-number-label" id="v-3071" font-family="OpenSansCondensedLight" font-size="14pt" fill="black" transform="translate(226.7716522216797,13.356611251831055)"/><rect class="ui-label-box" id="v-3072" stroke-width="0" fill="none" width="219.21259880065918" height="21.04393196105957" transform="translate(3.7795276641845703,3.7795276641845703)"/><text class="ui-label" id="v-3073" font-family="OpenSansCondensedLight" font-size="14pt" fill="black" transform="translate(3.7795276641845703,3.7795276641845703)" text-anchor="middle"><tspan x="109.6063003540039" y="6.321958480529787">PROCESS SAMPLE DATA</tspan><tspan x="109.6063003540039" y="27.321995980529785">512</tspan></text><path class="ui-number-underline" id="v-3074" stroke="#000000" fill="none" transform="translate(3.7795276641845703,3.7795276641845703)" d="M 95.61132049560547 29 123.60128021240234 29"/></g><g id="j_159" model-id="c44042a4-bd80-49d0-93d0-53ed24a8b7f2" class="tp Link link"><path class="connection" stroke="black" id="v-3184" stroke-dasharray="none" d="M 309 565 309 605"/><path class="marker-source" fill="black" stroke="black" id="v-3185" d="" transform="translate(309,565) scale(1,1) rotate(-270)"/><path class="marker-target" fill="black" stroke="black" id="v-3186" d="M 8 0 L 0 4 L 8 8 z" transform="translate(305,613) scale(1,1) rotate(-90)"/><g class="labels" id="v-3188"><g class="js-link-label" id="v-3196" label-idx="0" cursor="move" transform="translate(309, 585)"><rect fill="white" rx="3" ry="3" x="0" y="0" width="0" height="0"/><text class="ui-link-label" text-anchor="middle" font-size="14pt" font-family="OpenSansCondensedLight" id="v-3197" y="0.8em" display="none" xml:space="preserve" transform="translate(0,0)"/></g></g></g><g id="j_151" model-id="e23020e7-1bc8-4e37-8968-47ccb5e00440" class="element tp Element" transform="translate(196,688.6894851122931)"><g class="rotatable" id="v-3024"><g class="scalable" id="v-3034">
<path class="ui-fill ui-stroke js-perimeter" data-relative-d="M{width},0 H0 V{height} H{width} z" d="M226.77165985107422,0 H0 V68.62521259654712 H226.77165985107422 z" id="v-3031" stroke="#000000" stroke-dasharray="none" fill="#FFFFFF"/>
<path class="ui-interior-label" data-relative-d="M{0.1cm},{0.1cm} V{height-0.05cm} H{width-0.1cm} V{0.1cm} z" d="M3.7795276641845703,3.7795276641845703 V66.73544876445483 H222.99213218688965 V3.7795276641845703 z" id="v-3032" fill="none"/>
<path fill="none" data-relative-d="M{0.5*width},0 l0.1,0 l0,0.1 z" d="M113.38582992553711,0 l0.1,0 l0,0.1 z" class="js-link-connector js-number-connector-1" id="v-3035"/>
<path fill="none" data-relative-d="M{0.75*width},0 l0.1,0 l0,0.1 z" d="M170.07874488830566,0 l0.1,0 l0,0.1 z" class="js-link-connector js-number-connector-2" id="v-3036"/>
<path fill="none" data-relative-d="M{width},{0.25*height} l0.1,0 l0,0.1 z" d="M226.77165985107422,17.15630314913678 l0.1,0 l0,0.1 z" class="js-link-connector js-number-connector-3" id="v-3037"/>
<path fill="none" data-relative-d="M{width},{0.5*height} l0.1,0 l0,0.1 z" d="M226.77165985107422,34.31260629827356 l0.1,0 l0,0.1 z" class="js-link-connector js-number-connector-4" id="v-3033"/>
<path fill="none" data-relative-d="M{width},{0.75*height} l0.1,0 l0,0.1 z" d="M226.77165985107422,51.46890944741034 l0.1,0 l0,0.1 z" class="js-link-connector js-number-connector-5" id="v-3038"/>
<path fill="none" data-relative-d="M{0.75*width},{height} l0.1,0 l0,0.1 z" d="M170.07874488830566,68.62521259654712 l0.1,0 l0,0.1 z" class="js-link-connector js-number-connector-6" id="v-3039"/>
<path fill="none" data-relative-d="M{0.5*width},{height} l0.1,0 l0,0.1 z" d="M113.38582992553711,68.62521259654712 l0.1,0 l0,0.1 z" class="js-link-connector js-number-connector-7" id="v-3040"/>
<path fill="none" data-relative-d="M{0.25*width},{height} l0.1,0 l0,0.1 z" d="M56.692914962768555,68.62521259654712 l0.1,0 l0,0.1 z" class="js-link-connector js-number-connector-8" id="v-3041"/>
<path fill="none" data-relative-d="M0,{0.75*height} l0.1,0 l0,0.1 z" d="M0,51.46890944741034 l0.1,0 l0,0.1 z" class="js-link-connector js-number-connector-9" id="v-3042"/>
<path fill="none" data-relative-d="M0,{0.5*height} l0.1,0 l0,0.1 z" d="M0,34.31260629827356 l0.1,0 l0,0.1 z" class="js-link-connector js-number-connector-10" id="v-3043"/>
<path fill="none" data-relative-d="M0,{0.25*height} l0.1,0 l0,0.1 z" d="M0,17.15630314913678 l0.1,0 l0,0.1 z" class="js-link-connector js-number-connector-11" id="v-3044"/>
<path fill="none" data-relative-d="M{0.25*width},0 l0.1,0 l0,0.1 z" d="M56.692914962768555,0 l0.1,0 l0,0.1 z" class="js-link-connector js-number-connector-12" id="v-3045"/>
</g></g><rect class="ui-number-box" id="v-3025" stroke="none" stroke-width="0" fill="#FFFFFF" x="0" y="0" width="0" height="0" transform="translate(226.7716522216797,34.31260681152344)"/><path class="ui-number-leadline" id="v-3026" stroke="#000000" fill="none" d=""/><text class="ui-number-label" id="v-3027" font-family="OpenSansCondensedLight" font-size="14pt" fill="black" transform="translate(226.7716522216797,34.31260681152344)"/><rect class="ui-label-box" id="v-3028" stroke-width="0" fill="none" width="219.21259880065918" height="62.955923080444336" transform="translate(3.7795276641845703,3.7795276641845703)"/><text class="ui-label" id="v-3029" font-family="OpenSansCondensedLight" font-size="14pt" fill="black" transform="translate(3.7795276641845703,3.7795276641845703)" text-anchor="middle"><tspan x="109.6063003540039" y="6.277917493896489">DISPLAY PROCESSED</tspan><tspan x="109.6063003540039" y="27.277954993896486">DATA AS</tspan><tspan x="109.6063003540039" y="48.277992493896484">ELECTROPHEROGRAM</tspan><tspan x="109.6063003540039" y="69.27802999389648">IN DISPLAY DEVICE 514</tspan></text><path class="ui-number-underline" id="v-3030" stroke="#000000" fill="none" transform="translate(3.7795276641845703,3.7795276641845703)" d="M 185.1983184814453 71 213.1882781982422 71"/></g><g id="j_157" model-id="9e115c44-3002-4764-9db0-7e7f4aae58cd" class="tp Link link"><path class="connection" stroke="black" id="v-3156" stroke-dasharray="none" d="M 309 640 309 681"/><path class="marker-source" fill="black" stroke="black" id="v-3157" d="" transform="translate(309,640) scale(1,1) rotate(-270)"/><path class="marker-target" fill="black" stroke="black" id="v-3158" d="M 8 0 L 0 4 L 8 8 z" transform="translate(305,689) scale(1,1) rotate(-90)"/><g class="labels" id="v-3160"><g class="js-link-label" id="v-3168" label-idx="0" cursor="move" transform="translate(309, 660.5)"><rect fill="white" rx="3" ry="3" x="0" y="0" width="0" height="0"/><text class="ui-link-label" text-anchor="middle" font-size="14pt" font-family="OpenSansCondensedLight" id="v-3169" y="0.8em" display="none" xml:space="preserve" transform="translate(0,0)"/></g></g></g></g><defs id="v-2965"/></svg>