<svg xmlns="http://www.w3.org/2000/svg" xmlns:xlink="http://www.w3.org/1999/xlink" version="1.1" width="422.9000244140625" height="867.1000480651855" viewBox="195 46.11249923706055 422.9000244140625 867.1000480651855"><g><g transform="translate(229,821)"><g><g>
<path d="M116,0H0v46h116V0L116,0z" fill="none" stroke="none" stroke-dasharray="none"/>
<rect x="5.1" y="2.1" width="105.9" height="41.8" fill="none"/>
<circle fill="none" cx="58" cy="0" r="0.1"/>
<circle fill="none" cx="86.7" cy="0" r="0.1"/>
<circle fill="none" cx="116" cy="11.6" r="0.1"/>
<circle fill="none" cx="116" cy="23" r="0.1"/>
<circle fill="none" cx="116" cy="34.4" r="0.1"/>
<circle fill="none" cx="86.7" cy="46" r="0.1"/>
<circle fill="none" cx="58" cy="46" r="0.1"/>
<circle fill="none" cx="29.3" cy="46" r="0.1"/>
<circle fill="none" cx="0" cy="34.4" r="0.1"/>
<circle fill="none" cx="0" cy="23" r="0.1"/>
<circle fill="none" cx="0" cy="11.6" r="0.1"/>
<circle fill="none" cx="29.3" cy="0" r="0.1"/>
</g></g><rect stroke="none" stroke-width="0" fill="#FFFFFF" x="0" y="0" width="0" height="0" transform="translate(115.9,22.9)"/><path stroke="#000000" fill="none" d=""/><text font-family="OpenSansCondensedLight" font-size="14pt" fill="black" transform="translate(115.9,22.9)"/><rect stroke-width="0" fill="none" width="105.9" height="41.8" transform="translate(5.1,2.1)"/><text font-family="OpenSansCondensedLight" font-size="14pt" fill="black" transform="translate(5.1,2.1)" text-anchor="middle"><tspan x="52.9" y="16.7">(PRIOR</tspan><tspan x="52.9" y="37.7">ART)</tspan></text><path stroke="#000000" fill="none" transform="translate(5.1,2.1)" d="M 0 0"/></g><g transform="translate(196,147)"><g><g>
<path data-relative-d="M{width},0 H0 V{height} H{width} z" d="M226.8,0 H0 V47.6 H226.8 z" stroke="#000000" stroke-dasharray="none" fill="#FFFFFF"/>
<path data-relative-d="M{0.1cm},{0.1cm} V{height-0.1cm} H{width-0.1cm} V{0.1cm} z" d="M3.8,3.8 V45.7 H223 V3.8 z" fill="none"/>
<path fill="none" data-relative-d="M{0.5*width},0 l0.1,0 l0,0.1 z" d="M113.4,0 l0.1,0 l0,0.1 z"/>
<path fill="none" data-relative-d="M{0.8*width},0 l0.1,0 l0,0.1 z" d="M170.1,0 l0.1,0 l0,0.1 z"/>
<path fill="none" data-relative-d="M{width},{0.3*height} l0.1,0 l0,0.1 z" d="M226.8,11.9 l0.1,0 l0,0.1 z"/>
<path fill="none" data-relative-d="M{width},{0.5*height} l0.1,0 l0,0.1 z" d="M226.8,23.8 l0.1,0 l0,0.1 z"/>
<path fill="none" data-relative-d="M{width},{0.8*height} l0.1,0 l0,0.1 z" d="M226.8,35.7 l0.1,0 l0,0.1 z"/>
<path fill="none" data-relative-d="M{0.8*width},{height} l0.1,0 l0,0.1 z" d="M170.1,47.6 l0.1,0 l0,0.1 z"/>
<path fill="none" data-relative-d="M{0.5*width},{height} l0.1,0 l0,0.1 z" d="M113.4,47.6 l0.1,0 l0,0.1 z"/>
<path fill="none" data-relative-d="M{0.3*width},{height} l0.1,0 l0,0.1 z" d="M56.7,47.6 l0.1,0 l0,0.1 z"/>
<path fill="none" data-relative-d="M0,{0.8*height} l0.1,0 l0,0.1 z" d="M0,35.7 l0.1,0 l0,0.1 z"/>
<path fill="none" data-relative-d="M0,{0.5*height} l0.1,0 l0,0.1 z" d="M0,23.8 l0.1,0 l0,0.1 z"/>
<path fill="none" data-relative-d="M0,{0.3*height} l0.1,0 l0,0.1 z" d="M0,11.9 l0.1,0 l0,0.1 z"/>
<path fill="none" data-relative-d="M{0.3*width},0 l0.1,0 l0,0.1 z" d="M56.7,0 l0.1,0 l0,0.1 z"/>
</g></g><rect stroke="none" stroke-width="0" fill="#FFFFFF" x="0" y="0" width="0" height="0" transform="translate(226.8,23.8)"/><path stroke="#000000" fill="none" d=""/><text font-family="OpenSansCondensedLight" font-size="14pt" fill="black" transform="translate(226.8,23.8)"/><rect stroke-width="0" fill="none" width="219.2" height="41.9" transform="translate(3.8,3.8)"/><text font-family="OpenSansCondensedLight" font-size="14pt" fill="black" transform="translate(3.8,3.8)" text-anchor="middle"><tspan x="109.6" y="6.3">LOAD FLUORESCENTLY</tspan><tspan x="109.6" y="27.3">LABELED SAMPLE INTO</tspan><tspan x="109.6" y="48.3">INSTRUMENT 504</tspan></text><path stroke="#000000" fill="none" transform="translate(3.8,3.8)" d="M 158.1 50 186.1 50"/></g><g transform="translate(195,53)"><g><g>
<path data-relative-d="M{width},0 H0 V{height} H{width} z" d="M226.8,0 H0 V47.6 H226.8 z" stroke="#000000" stroke-dasharray="none" fill="#FFFFFF"/>
<path data-relative-d="M{0.1cm},{0.1cm} V{height-0.1cm} H{width-0.1cm} V{0.1cm} z" d="M3.8,3.8 V45.7 H223 V3.8 z" fill="none"/>
<path fill="none" data-relative-d="M{0.5*width},0 l0.1,0 l0,0.1 z" d="M113.4,0 l0.1,0 l0,0.1 z"/>
<path fill="none" data-relative-d="M{0.8*width},0 l0.1,0 l0,0.1 z" d="M170.1,0 l0.1,0 l0,0.1 z"/>
<path fill="none" data-relative-d="M{width},{0.3*height} l0.1,0 l0,0.1 z" d="M226.8,11.9 l0.1,0 l0,0.1 z"/>
<path fill="none" data-relative-d="M{width},{0.5*height} l0.1,0 l0,0.1 z" d="M226.8,23.8 l0.1,0 l0,0.1 z"/>
<path fill="none" data-relative-d="M{width},{0.8*height} l0.1,0 l0,0.1 z" d="M226.8,35.7 l0.1,0 l0,0.1 z"/>
<path fill="none" data-relative-d="M{0.8*width},{height} l0.1,0 l0,0.1 z" d="M170.1,47.6 l0.1,0 l0,0.1 z"/>
<path fill="none" data-relative-d="M{0.5*width},{height} l0.1,0 l0,0.1 z" d="M113.4,47.6 l0.1,0 l0,0.1 z"/>
<path fill="none" data-relative-d="M{0.3*width},{height} l0.1,0 l0,0.1 z" d="M56.7,47.6 l0.1,0 l0,0.1 z"/>
<path fill="none" data-relative-d="M0,{0.8*height} l0.1,0 l0,0.1 z" d="M0,35.7 l0.1,0 l0,0.1 z"/>
<path fill="none" data-relative-d="M0,{0.5*height} l0.1,0 l0,0.1 z" d="M0,23.8 l0.1,0 l0,0.1 z"/>
<path fill="none" data-relative-d="M0,{0.3*height} l0.1,0 l0,0.1 z" d="M0,11.9 l0.1,0 l0,0.1 z"/>
<path fill="none" data-relative-d="M{0.3*width},0 l0.1,0 l0,0.1 z" d="M56.7,0 l0.1,0 l0,0.1 z"/>
</g></g><rect stroke="none" stroke-width="0" fill="#FFFFFF" x="0" y="0" width="0" height="0" transform="translate(226.8,23.8)"/><path stroke="#000000" fill="none" d=""/><text font-family="OpenSansCondensedLight" font-size="14pt" fill="black" transform="translate(226.8,23.8)"/><rect stroke-width="0" fill="none" width="219.2" height="41.9" transform="translate(3.8,3.8)"/><text font-family="OpenSansCondensedLight" font-size="14pt" fill="black" transform="translate(3.8,3.8)" text-anchor="middle"><tspan x="109.6" y="6.3">CONFIGURE</tspan><tspan x="109.6" y="27.3">INSTRUMENT</tspan><tspan x="109.6" y="48.3">PARAMETERS 502</tspan></text><path stroke="#000000" fill="none" transform="translate(3.8,3.8)" d="M 158.8 50 186.8 50"/></g><g><path stroke="black" stroke-dasharray="none" d="M 309 101 309 139" fill="none"/><path fill="black" stroke="black" d="" transform="translate(309,101) scale(1,1) rotate(-270)"/><path fill="black" stroke="black" d="M 8 0 L 0 4 L 8 8 z" transform="translate(305,147) scale(1,1) rotate(-90)"/><g><g label-idx="0" cursor="move" transform="translate(309, 120)"><rect fill="white" rx="3" ry="3" x="0" y="0" width="0" height="0"/><text text-anchor="middle" font-size="14pt" font-family="OpenSansCondensedLight" y="0.8em" display="none" xml:space="preserve" transform="translate(0,0)"/></g></g></g><g transform="translate(196,358.1)"><g><g>
<path data-relative-d="M{width},0 H0 V{height} H{width} z" d="M226.8,0 H0 V89.6 H226.8 z" stroke="#000000" stroke-dasharray="none" fill="#FFFFFF"/>
<path data-relative-d="M{0.1cm},{0.1cm} V{height-0.1cm} H{width-0.1cm} V{0.1cm} z" d="M3.8,3.8 V87.7 H223 V3.8 z" fill="none"/>
<path fill="none" data-relative-d="M{0.5*width},0 l0.1,0 l0,0.1 z" d="M113.4,0 l0.1,0 l0,0.1 z"/>
<path fill="none" data-relative-d="M{0.8*width},0 l0.1,0 l0,0.1 z" d="M170.1,0 l0.1,0 l0,0.1 z"/>
<path fill="none" data-relative-d="M{width},{0.3*height} l0.1,0 l0,0.1 z" d="M226.8,22.4 l0.1,0 l0,0.1 z"/>
<path fill="none" data-relative-d="M{width},{0.5*height} l0.1,0 l0,0.1 z" d="M226.8,44.8 l0.1,0 l0,0.1 z"/>
<path fill="none" data-relative-d="M{width},{0.8*height} l0.1,0 l0,0.1 z" d="M226.8,67.2 l0.1,0 l0,0.1 z"/>
<path fill="none" data-relative-d="M{0.8*width},{height} l0.1,0 l0,0.1 z" d="M170.1,89.6 l0.1,0 l0,0.1 z"/>
<path fill="none" data-relative-d="M{0.5*width},{height} l0.1,0 l0,0.1 z" d="M113.4,89.6 l0.1,0 l0,0.1 z"/>
<path fill="none" data-relative-d="M{0.3*width},{height} l0.1,0 l0,0.1 z" d="M56.7,89.6 l0.1,0 l0,0.1 z"/>
<path fill="none" data-relative-d="M0,{0.8*height} l0.1,0 l0,0.1 z" d="M0,67.2 l0.1,0 l0,0.1 z"/>
<path fill="none" data-relative-d="M0,{0.5*height} l0.1,0 l0,0.1 z" d="M0,44.8 l0.1,0 l0,0.1 z"/>
<path fill="none" data-relative-d="M0,{0.3*height} l0.1,0 l0,0.1 z" d="M0,22.4 l0.1,0 l0,0.1 z"/>
<path fill="none" data-relative-d="M{0.3*width},0 l0.1,0 l0,0.1 z" d="M56.7,0 l0.1,0 l0,0.1 z"/>
</g></g><rect stroke="none" stroke-width="0" fill="#FFFFFF" x="0" y="0" width="0" height="0" transform="translate(226.8,44.8)"/><path stroke="#000000" fill="none" d=""/><text font-family="OpenSansCondensedLight" font-size="14pt" fill="black" transform="translate(226.8,44.8)"/><rect stroke-width="0" fill="none" width="219.2" height="84" transform="translate(3.8,3.8)"/><text font-family="OpenSansCondensedLight" font-size="14pt" fill="black" transform="translate(3.8,3.8)" text-anchor="middle"><tspan x="109.6" y="-4.2">DETECT FLUORESCENT</tspan><tspan x="109.6" y="16.8">SIGNAL FROM</tspan><tspan x="109.6" y="37.8">FLUORESCENTLY</tspan><tspan x="109.6" y="58.8">LABLED SAMPLE</tspan><tspan x="109.6" y="79.8">PASSING THROUGH</tspan><tspan x="109.6" y="100.8">OPTICAL SENSOR 508</tspan></text><path stroke="#000000" fill="none" transform="translate(3.8,3.8)" d="M 175.4 103 203.4 103"/></g><g><path stroke="black" stroke-dasharray="none" d="M 309 195 309 233" fill="none"/><path fill="black" stroke="black" d="" transform="translate(309,195) scale(1,1) rotate(-270)"/><path fill="black" stroke="black" d="M 8 0 L 0 4 L 8 8 z" transform="translate(305,241) scale(1,1) rotate(-90)"/><g><g label-idx="0" cursor="move" transform="translate(309, 214)"><rect fill="white" rx="3" ry="3" x="0" y="0" width="0" height="0"/><text text-anchor="middle" font-size="14pt" font-family="OpenSansCondensedLight" y="0.8em" display="none" xml:space="preserve" transform="translate(0,0)"/></g></g></g><g transform="translate(196,240.9)"><g><g>
<path data-relative-d="M{width},0 H0 V{height} H{width} z" d="M226.8,0 H0 V68.6 H226.8 z" stroke="#000000" stroke-dasharray="none" fill="#FFFFFF"/>
<path data-relative-d="M{0.1cm},{0.1cm} V{height-0.1cm} H{width-0.1cm} V{0.1cm} z" d="M3.8,3.8 V66.7 H223 V3.8 z" fill="none"/>
<path fill="none" data-relative-d="M{0.5*width},0 l0.1,0 l0,0.1 z" d="M113.4,0 l0.1,0 l0,0.1 z"/>
<path fill="none" data-relative-d="M{0.8*width},0 l0.1,0 l0,0.1 z" d="M170.1,0 l0.1,0 l0,0.1 z"/>
<path fill="none" data-relative-d="M{width},{0.3*height} l0.1,0 l0,0.1 z" d="M226.8,17.2 l0.1,0 l0,0.1 z"/>
<path fill="none" data-relative-d="M{width},{0.5*height} l0.1,0 l0,0.1 z" d="M226.8,34.3 l0.1,0 l0,0.1 z"/>
<path fill="none" data-relative-d="M{width},{0.8*height} l0.1,0 l0,0.1 z" d="M226.8,51.5 l0.1,0 l0,0.1 z"/>
<path fill="none" data-relative-d="M{0.8*width},{height} l0.1,0 l0,0.1 z" d="M170.1,68.6 l0.1,0 l0,0.1 z"/>
<path fill="none" data-relative-d="M{0.5*width},{height} l0.1,0 l0,0.1 z" d="M113.4,68.6 l0.1,0 l0,0.1 z"/>
<path fill="none" data-relative-d="M{0.3*width},{height} l0.1,0 l0,0.1 z" d="M56.7,68.6 l0.1,0 l0,0.1 z"/>
<path fill="none" data-relative-d="M0,{0.8*height} l0.1,0 l0,0.1 z" d="M0,51.5 l0.1,0 l0,0.1 z"/>
<path fill="none" data-relative-d="M0,{0.5*height} l0.1,0 l0,0.1 z" d="M0,34.3 l0.1,0 l0,0.1 z"/>
<path fill="none" data-relative-d="M0,{0.3*height} l0.1,0 l0,0.1 z" d="M0,17.2 l0.1,0 l0,0.1 z"/>
<path fill="none" data-relative-d="M{0.3*width},0 l0.1,0 l0,0.1 z" d="M56.7,0 l0.1,0 l0,0.1 z"/>
</g></g><rect stroke="none" stroke-width="0" fill="#FFFFFF" x="0" y="0" width="0" height="0" transform="translate(226.8,34.3)"/><path stroke="#000000" fill="none" d=""/><text font-family="OpenSansCondensedLight" font-size="14pt" fill="black" transform="translate(226.8,34.3)"/><rect stroke-width="0" fill="none" width="219.2" height="63" transform="translate(3.8,3.8)"/><text font-family="OpenSansCondensedLight" font-size="14pt" fill="black" transform="translate(3.8,3.8)" text-anchor="middle"><tspan x="109.6" y="6.3">APPLY VOLTAGE FROM</tspan><tspan x="109.6" y="27.3">POWER SOURCE TO</tspan><tspan x="109.6" y="48.3">ELETRODES IN BUFFER</tspan><tspan x="109.6" y="69.3">506</tspan></text><path stroke="#000000" fill="none" transform="translate(3.8,3.8)" d="M 95.6 71 123.6 71"/></g><g><path stroke="black" stroke-dasharray="none" d="M 309 310 309 350" fill="none"/><path fill="black" stroke="black" d="" transform="translate(309,310) scale(1,1) rotate(-270)"/><path fill="black" stroke="black" d="M 8 0 L 0 4 L 8 8 z" transform="translate(305,358) scale(1,1) rotate(-90)"/><g><g label-idx="0" cursor="move" transform="translate(309, 330)"><rect fill="white" rx="3" ry="3" x="0" y="0" width="0" height="0"/><text text-anchor="middle" font-size="14pt" font-family="OpenSansCondensedLight" y="0.8em" display="none" xml:space="preserve" transform="translate(0,0)"/></g></g></g><g transform="translate(196,496.3)"><g><g>
<path data-relative-d="M{width},0 H0 V{height} H{width} z" d="M226.8,0 H0 V68.6 H226.8 z" stroke="#000000" stroke-dasharray="none" fill="#FFFFFF"/>
<path data-relative-d="M{0.1cm},{0.1cm} V{height-0.1cm} H{width-0.1cm} V{0.1cm} z" d="M3.8,3.8 V66.7 H223 V3.8 z" fill="none"/>
<path fill="none" data-relative-d="M{0.5*width},0 l0.1,0 l0,0.1 z" d="M113.4,0 l0.1,0 l0,0.1 z"/>
<path fill="none" data-relative-d="M{0.8*width},0 l0.1,0 l0,0.1 z" d="M170.1,0 l0.1,0 l0,0.1 z"/>
<path fill="none" data-relative-d="M{width},{0.3*height} l0.1,0 l0,0.1 z" d="M226.8,17.2 l0.1,0 l0,0.1 z"/>
<path fill="none" data-relative-d="M{width},{0.5*height} l0.1,0 l0,0.1 z" d="M226.8,34.3 l0.1,0 l0,0.1 z"/>
<path fill="none" data-relative-d="M{width},{0.8*height} l0.1,0 l0,0.1 z" d="M226.8,51.5 l0.1,0 l0,0.1 z"/>
<path fill="none" data-relative-d="M{0.8*width},{height} l0.1,0 l0,0.1 z" d="M170.1,68.6 l0.1,0 l0,0.1 z"/>
<path fill="none" data-relative-d="M{0.5*width},{height} l0.1,0 l0,0.1 z" d="M113.4,68.6 l0.1,0 l0,0.1 z"/>
<path fill="none" data-relative-d="M{0.3*width},{height} l0.1,0 l0,0.1 z" d="M56.7,68.6 l0.1,0 l0,0.1 z"/>
<path fill="none" data-relative-d="M0,{0.8*height} l0.1,0 l0,0.1 z" d="M0,51.5 l0.1,0 l0,0.1 z"/>
<path fill="none" data-relative-d="M0,{0.5*height} l0.1,0 l0,0.1 z" d="M0,34.3 l0.1,0 l0,0.1 z"/>
<path fill="none" data-relative-d="M0,{0.3*height} l0.1,0 l0,0.1 z" d="M0,17.2 l0.1,0 l0,0.1 z"/>
<path fill="none" data-relative-d="M{0.3*width},0 l0.1,0 l0,0.1 z" d="M56.7,0 l0.1,0 l0,0.1 z"/>
</g></g><rect stroke="none" stroke-width="0" fill="#FFFFFF" x="0" y="0" width="0" height="0" transform="translate(226.8,34.3)"/><path stroke="#000000" fill="none" d=""/><text font-family="OpenSansCondensedLight" font-size="14pt" fill="black" transform="translate(226.8,34.3)"/><rect stroke-width="0" fill="none" width="219.2" height="63" transform="translate(3.8,3.8)"/><text font-family="OpenSansCondensedLight" font-size="14pt" fill="black" transform="translate(3.8,3.8)" text-anchor="middle"><tspan x="109.6" y="-4.2">AGGREGATE RAW</tspan><tspan x="109.6" y="16.8">IMAGE DATA FROM</tspan><tspan x="109.6" y="37.8">OPTICAL SENSOR AT</tspan><tspan x="109.6" y="58.8">COMPUTING DEVICE</tspan><tspan x="109.6" y="79.8">510</tspan></text><path stroke="#000000" fill="none" transform="translate(3.8,3.8)" d="M 95.6 82 123.6 82"/></g><g><path stroke="black" stroke-dasharray="none" d="M 309 448 309 488" fill="none"/><path fill="black" stroke="black" d="" transform="translate(309,448) scale(1,1) rotate(-270)"/><path fill="black" stroke="black" d="M 8 0 L 0 4 L 8 8 z" transform="translate(305,496) scale(1,1) rotate(-90)"/><g><g label-idx="0" cursor="move" transform="translate(309, 468)"><rect fill="white" rx="3" ry="3" x="0" y="0" width="0" height="0"/><text text-anchor="middle" font-size="14pt" font-family="OpenSansCondensedLight" y="0.8em" display="none" xml:space="preserve" transform="translate(0,0)"/></g></g></g><g transform="translate(196,613.4)"><g><g>
<path data-relative-d="M{width},0 H0 V{height} H{width} z" d="M226.8,0 H0 V26.7 H226.8 z" stroke="#000000" stroke-dasharray="none" fill="#FFFFFF"/>
<path data-relative-d="M{0.1cm},{0.1cm} V{height-0.1cm} H{width-0.1cm} V{0.1cm} z" d="M3.8,3.8 V24.8 H223 V3.8 z" fill="none"/>
<path fill="none" data-relative-d="M{0.5*width},0 l0.1,0 l0,0.1 z" d="M113.4,0 l0.1,0 l0,0.1 z"/>
<path fill="none" data-relative-d="M{0.8*width},0 l0.1,0 l0,0.1 z" d="M170.1,0 l0.1,0 l0,0.1 z"/>
<path fill="none" data-relative-d="M{width},{0.3*height} l0.1,0 l0,0.1 z" d="M226.8,6.7 l0.1,0 l0,0.1 z"/>
<path fill="none" data-relative-d="M{width},{0.5*height} l0.1,0 l0,0.1 z" d="M226.8,13.4 l0.1,0 l0,0.1 z"/>
<path fill="none" data-relative-d="M{width},{0.8*height} l0.1,0 l0,0.1 z" d="M226.8,20 l0.1,0 l0,0.1 z"/>
<path fill="none" data-relative-d="M{0.8*width},{height} l0.1,0 l0,0.1 z" d="M170.1,26.7 l0.1,0 l0,0.1 z"/>
<path fill="none" data-relative-d="M{0.5*width},{height} l0.1,0 l0,0.1 z" d="M113.4,26.7 l0.1,0 l0,0.1 z"/>
<path fill="none" data-relative-d="M{0.3*width},{height} l0.1,0 l0,0.1 z" d="M56.7,26.7 l0.1,0 l0,0.1 z"/>
<path fill="none" data-relative-d="M0,{0.8*height} l0.1,0 l0,0.1 z" d="M0,20 l0.1,0 l0,0.1 z"/>
<path fill="none" data-relative-d="M0,{0.5*height} l0.1,0 l0,0.1 z" d="M0,13.4 l0.1,0 l0,0.1 z"/>
<path fill="none" data-relative-d="M0,{0.3*height} l0.1,0 l0,0.1 z" d="M0,6.7 l0.1,0 l0,0.1 z"/>
<path fill="none" data-relative-d="M{0.3*width},0 l0.1,0 l0,0.1 z" d="M56.7,0 l0.1,0 l0,0.1 z"/>
</g></g><rect stroke="none" stroke-width="0" fill="#FFFFFF" x="0" y="0" width="0" height="0" transform="translate(226.8,13.4)"/><path stroke="#000000" fill="none" d=""/><text font-family="OpenSansCondensedLight" font-size="14pt" fill="black" transform="translate(226.8,13.4)"/><rect stroke-width="0" fill="none" width="219.2" height="21" transform="translate(3.8,3.8)"/><text font-family="OpenSansCondensedLight" font-size="14pt" fill="black" transform="translate(3.8,3.8)" text-anchor="middle"><tspan x="109.6" y="6.3">PROCESS SAMPLE DATA</tspan><tspan x="109.6" y="27.3">512</tspan></text><path stroke="#000000" fill="none" transform="translate(3.8,3.8)" d="M 95.6 29 123.6 29"/></g><g><path stroke="black" stroke-dasharray="none" d="M 309 565 309 605" fill="none"/><path fill="black" stroke="black" d="" transform="translate(309,565) scale(1,1) rotate(-270)"/><path fill="black" stroke="black" d="M 8 0 L 0 4 L 8 8 z" transform="translate(305,613) scale(1,1) rotate(-90)"/><g><g label-idx="0" cursor="move" transform="translate(309, 585)"><rect fill="white" rx="3" ry="3" x="0" y="0" width="0" height="0"/><text text-anchor="middle" font-size="14pt" font-family="OpenSansCondensedLight" y="0.8em" display="none" xml:space="preserve" transform="translate(0,0)"/></g></g></g><g transform="translate(196,688.7)"><g><g>
<path data-relative-d="M{width},0 H0 V{height} H{width} z" d="M226.8,0 H0 V68.6 H226.8 z" stroke="#000000" stroke-dasharray="none" fill="#FFFFFF"/>
<path data-relative-d="M{0.1cm},{0.1cm} V{height-0.1cm} H{width-0.1cm} V{0.1cm} z" d="M3.8,3.8 V66.7 H223 V3.8 z" fill="none"/>
<path fill="none" data-relative-d="M{0.5*width},0 l0.1,0 l0,0.1 z" d="M113.4,0 l0.1,0 l0,0.1 z"/>
<path fill="none" data-relative-d="M{0.8*width},0 l0.1,0 l0,0.1 z" d="M170.1,0 l0.1,0 l0,0.1 z"/>
<path fill="none" data-relative-d="M{width},{0.3*height} l0.1,0 l0,0.1 z" d="M226.8,17.2 l0.1,0 l0,0.1 z"/>
<path fill="none" data-relative-d="M{width},{0.5*height} l0.1,0 l0,0.1 z" d="M226.8,34.3 l0.1,0 l0,0.1 z"/>
<path fill="none" data-relative-d="M{width},{0.8*height} l0.1,0 l0,0.1 z" d="M226.8,51.5 l0.1,0 l0,0.1 z"/>
<path fill="none" data-relative-d="M{0.8*width},{height} l0.1,0 l0,0.1 z" d="M170.1,68.6 l0.1,0 l0,0.1 z"/>
<path fill="none" data-relative-d="M{0.5*width},{height} l0.1,0 l0,0.1 z" d="M113.4,68.6 l0.1,0 l0,0.1 z"/>
<path fill="none" data-relative-d="M{0.3*width},{height} l0.1,0 l0,0.1 z" d="M56.7,68.6 l0.1,0 l0,0.1 z"/>
<path fill="none" data-relative-d="M0,{0.8*height} l0.1,0 l0,0.1 z" d="M0,51.5 l0.1,0 l0,0.1 z"/>
<path fill="none" data-relative-d="M0,{0.5*height} l0.1,0 l0,0.1 z" d="M0,34.3 l0.1,0 l0,0.1 z"/>
<path fill="none" data-relative-d="M0,{0.3*height} l0.1,0 l0,0.1 z" d="M0,17.2 l0.1,0 l0,0.1 z"/>
<path fill="none" data-relative-d="M{0.3*width},0 l0.1,0 l0,0.1 z" d="M56.7,0 l0.1,0 l0,0.1 z"/>
</g></g><rect stroke="none" stroke-width="0" fill="#FFFFFF" x="0" y="0" width="0" height="0" transform="translate(226.8,34.3)"/><path stroke="#000000" fill="none" d=""/><text font-family="OpenSansCondensedLight" font-size="14pt" fill="black" transform="translate(226.8,34.3)"/><rect stroke-width="0" fill="none" width="219.2" height="63" transform="translate(3.8,3.8)"/><text font-family="OpenSansCondensedLight" font-size="14pt" fill="black" transform="translate(3.8,3.8)" text-anchor="middle"><tspan x="109.6" y="6.3">DISPLAY PROCESSED</tspan><tspan x="109.6" y="27.3">DATA AS</tspan><tspan x="109.6" y="48.3">ELECTROPHEROGRAM</tspan><tspan x="109.6" y="69.3">IN DISPLAY DEVICE 514</tspan></text><path stroke="#000000" fill="none" transform="translate(3.8,3.8)" d="M 185.2 71 213.2 71"/></g><g><path stroke="black" stroke-dasharray="none" d="M 309 640 309 681" fill="none"/><path fill="black" stroke="black" d="" transform="translate(309,640) scale(1,1) rotate(-270)"/><path fill="black" stroke="black" d="M 8 0 L 0 4 L 8 8 z" transform="translate(305,689) scale(1,1) rotate(-90)"/><g><g label-idx="0" cursor="move" transform="translate(309, 660.5)"><rect fill="white" rx="3" ry="3" x="0" y="0" width="0" height="0"/><text text-anchor="middle" font-size="14pt" font-family="OpenSansCondensedLight" y="0.8em" display="none" xml:space="preserve" transform="translate(0,0)"/></g></g></g></g><defs/></svg>